<svg width="90" height="29" viewBox="0 0 90 29" fill="none" xmlns="http://www.w3.org/2000/svg">
<g clip-path="url(#clip0_73_1111)">
<path opacity="0.4" d="M89.9365 22.0944C89.9365 21.1443 89.3549 20.7789 88.4826 20.7789C87.9738 20.7789 81.7951 20.7789 81.7951 20.7789C78.524 20.7789 77.7243 18.8056 77.579 17.5631C77.579 17.5631 84.4846 17.5631 86.6654 17.5631C89.4276 17.5631 90.2999 15.5167 90.2999 14.2011C90.2999 12.8125 89.4276 10.8392 86.6654 10.8392C84.1939 10.8392 81.6497 10.8392 81.6497 10.8392C76.9248 10.8392 75.3982 14.055 75.3982 16.6861C75.3982 19.5364 77.1428 22.533 81.6497 22.533H89.9365C89.9365 22.606 89.9365 22.1675 89.9365 22.0944ZM81.7951 12.5932C82.522 12.5932 85.1388 12.5932 86.1565 12.5932C87.7557 12.5932 88.1192 13.5434 88.1192 14.2011C88.1192 14.7858 87.7557 15.809 86.1565 15.809C85.0662 15.809 77.4336 15.809 77.4336 15.809C77.579 14.7858 78.524 12.5932 81.7951 12.5932ZM62.3865 21.8752C61.8777 22.533 61.6596 22.8253 61.1508 22.8253C60.4966 22.8253 60.3512 22.533 59.915 21.8752C58.8974 20.4135 52.7913 10.9122 52.7913 10.9122C52.7913 10.9122 53.2275 10.9122 53.6636 10.9122C55.1174 10.9122 55.5536 11.57 55.9897 12.3009C56.3532 12.8856 61.2962 20.4865 61.2962 20.4865C61.2962 20.4865 65.9484 13.251 66.6026 12.2278C67.0388 11.57 67.6203 10.9122 69.0014 10.9122C69.2922 10.9122 69.6556 10.9122 69.6556 10.9122C69.6556 10.9122 63.2588 20.7058 62.3865 21.8752ZM16.5185 22.606C15.4281 22.606 14.9919 22.1675 14.8466 21.2905L14.5558 20.048C14.265 20.5596 12.8112 22.606 9.6128 22.606C9.6128 22.606 8.0136 22.606 6.3417 22.606C1.39871 22.606 0.0175781 19.2441 0.0175781 16.7591C0.0175781 13.9819 1.68947 10.9122 6.3417 10.9122C7.28669 10.9122 8.30436 10.9122 9.83088 10.9122C13.3927 10.9122 15.3554 12.9587 15.7915 15.5167C16.155 17.6362 17.1 22.606 17.1 22.606C17.1 22.606 16.8819 22.606 16.5185 22.606ZM9.32204 12.7394C8.15898 12.7394 7.86822 12.7394 6.55978 12.7394C3.21599 12.7394 2.12562 14.8589 2.12562 16.7591C2.12562 18.6594 3.21599 20.7789 6.55978 20.7789C7.94091 20.7789 8.37705 20.7789 9.32204 20.7789C12.8112 20.7789 13.7562 18.5863 13.7562 16.7591C13.7562 15.1512 12.8839 12.7394 9.32204 12.7394ZM71.9091 9.01201C72.4179 9.01201 72.9267 8.71966 72.9267 8.06189C72.9267 7.91572 72.9267 7.76954 72.9267 7.69646C72.9267 7.11177 72.4179 6.74634 71.9091 6.74634C71.4002 6.74634 70.8914 7.03868 70.8914 7.69646C70.8914 7.76954 70.8914 7.91572 70.8914 8.06189C70.8914 8.71966 71.4002 9.01201 71.9091 9.01201ZM70.9641 10.9122C70.9641 10.9122 71.2548 10.9122 71.4002 10.9122C72.3452 10.9122 72.9267 11.4239 72.9267 12.4471C72.9267 12.5932 72.9267 22.606 72.9267 22.606C72.9267 22.606 72.7087 22.606 72.4906 22.606C71.5456 22.606 70.9641 22.0213 70.9641 20.9981C70.9641 20.9251 70.9641 10.9122 70.9641 10.9122ZM20.3711 12.5932C20.8072 12.1547 22.1157 10.9122 24.6599 10.9122C24.6599 10.9122 26.2591 10.9122 27.931 10.9122C32.874 10.9122 34.3278 14.2742 34.3278 16.7591C34.3278 19.5364 32.5832 22.606 27.931 22.606C26.986 22.606 25.9683 22.606 24.4418 22.606C20.8799 22.606 18.3357 20.3404 18.3357 16.7591C18.3357 15.5898 18.3357 6.9656 18.3357 6.9656C18.3357 6.9656 18.6992 6.9656 18.9173 6.9656C19.9349 6.9656 20.3711 7.4772 20.3711 8.35423C20.3711 8.50041 20.3711 12.5932 20.3711 12.5932ZM24.9506 20.7789C26.1137 20.7789 26.4044 20.7789 27.7129 20.7789C30.984 20.7789 32.147 18.6594 32.147 16.7591C32.147 14.8589 31.0567 12.7394 27.7129 12.7394C26.3318 12.7394 25.8956 12.7394 24.9506 12.7394C21.4614 12.7394 20.5165 14.932 20.5165 16.7591C20.4438 18.367 21.3888 20.7789 24.9506 20.7789ZM38.6165 12.5932C39.0527 12.1547 40.3611 10.9122 42.9053 10.9122C42.9053 10.9122 44.5045 10.9122 46.1764 10.9122C51.1194 10.9122 52.5005 14.2742 52.5005 16.7591C52.5005 19.5364 50.8286 22.606 46.1764 22.606C45.2314 22.606 44.2138 22.606 42.6872 22.606C39.1254 22.606 36.5812 20.3404 36.5812 16.7591C36.5812 15.5898 36.5812 6.9656 36.5812 6.9656C36.5812 6.9656 36.9446 6.9656 37.1627 6.9656C38.1804 6.9656 38.6165 7.4772 38.6165 8.35423C38.6165 8.50041 38.6165 12.5932 38.6165 12.5932ZM43.1961 20.7789C44.3591 20.7789 44.6499 20.7789 45.9583 20.7789C49.3021 20.7789 50.3925 18.6594 50.3925 16.7591C50.3925 14.8589 49.3021 12.7394 45.9583 12.7394C44.5772 12.7394 44.2138 12.7394 43.1961 12.7394C39.7069 12.7394 38.7619 14.932 38.7619 16.7591C38.6892 18.367 39.6342 20.7789 43.1961 20.7789Z" fill="black"/>
</g>
<defs>
<clipPath id="clip0_73_1111">
<rect width="90" height="29" fill="white"/>
</clipPath>
</defs>
</svg>
