<svg width="76" height="22" viewBox="0 0 76 22" fill="none" xmlns="http://www.w3.org/2000/svg">
<g clip-path="url(#clip0_73_1108)">
<path opacity="0.4" d="M30.8217 0.182892L30.4829 1.53748C30.4829 1.53748 29.4425 1.40591 27.98 2.63192L21.5502 7.80808L19.2941 9.62915C19.2941 9.62915 20.3672 11.3067 21.5502 13.1367C22.8582 15.1552 24.3058 17.353 24.5912 17.664C25.1352 18.2621 26.0299 19.2488 27.3914 19.2399L27.0406 20.6842C24.7012 20.6842 22.9563 20.753 21.5502 20.6842C17.3886 20.4958 16.1996 19.1502 11.4434 11.4652C11.4434 11.4652 10.0909 16.3902 9.76393 17.6192C9.43695 18.8482 11.1492 19.204 11.1492 19.204L10.7865 20.6692H0.00195312L0.0287065 20.5705L0.361636 19.2249C0.908592 19.1861 2.42461 19.3685 3.36692 15.7562C3.59878 15.0655 3.20046 16.3124 6.63677 3.79514C7.12427 1.9322 5.71824 1.66009 5.22776 1.53449L5.55475 0.194853H15.8696L15.5367 1.54047C15.5367 1.54047 14.1485 1.69298 13.7531 2.99076L11.9369 9.71288C11.9369 9.71288 20.5098 3.13429 20.6168 3.02664C21.4521 2.24618 20.4296 1.58832 19.6953 1.5315L20.0283 0.191863H21.5592L30.8217 0.182892ZM64.9352 0.000485947C63.8348 -0.0163684 62.7346 0.0395707 61.6415 0.167941C53.0032 1.18463 47.7744 6.65982 47.7893 12.144C47.7893 16.74 51.4931 21.1686 60.0571 21.1327C60.6011 21.1327 61.1303 21.1148 61.6415 21.0819C63.5195 20.9755 65.3867 20.7256 67.227 20.3343L68.2169 16.0582C66.5612 16.6114 64.4625 17.0809 62.786 17.0839C62.4087 17.0849 62.0317 17.0659 61.6564 17.0271C57.7296 16.6294 55.1702 14.0787 55.1583 10.8193C55.1583 7.44626 57.5869 4.7909 61.6564 4.10014C62.3757 3.9816 63.1034 3.92259 63.8323 3.92372C66.4571 3.92372 67.7888 4.79987 68.6628 5.95112H69.3732L70.7585 0.897567C68.8695 0.322 66.9088 0.0199412 64.9352 0.000485947ZM42.2127 0.197844H32.0375L31.7046 1.53748C31.7046 1.53748 33.7349 1.75876 33.1106 3.79514L28.4972 20.6722L37.7122 20.6902L38.057 19.2399C38.057 19.2399 36.3359 18.8212 36.7818 17.2185C36.8175 17.0749 38.1373 12.2098 38.1373 12.2098H42.3673C44.4778 12.2098 45.1704 13.3132 45.1704 13.3132L46.4189 8.30147H39.2847L40.3429 4.36329H46.5378C47.6793 4.36329 48.4759 5.1288 48.4759 5.69097H49.1775L50.5419 0.203824L42.2127 0.197844ZM74.8398 2.88909C74.9747 2.75435 75.0809 2.59339 75.1519 2.41603C75.223 2.23867 75.2574 2.04861 75.253 1.85744C75.2517 1.62228 75.1929 1.39105 75.0818 1.18417C74.9706 0.977284 74.8105 0.801116 74.6157 0.671217C74.4208 0.541318 74.1971 0.461686 73.9644 0.439351C73.7317 0.417016 73.4971 0.452665 73.2813 0.543152C73.0655 0.633638 72.8752 0.776177 72.7272 0.958183C72.5791 1.14019 72.4779 1.35606 72.4325 1.58674C72.387 1.81742 72.3987 2.05581 72.4666 2.28086C72.5344 2.50591 72.6563 2.71069 72.8214 2.87713C72.9519 3.01234 73.1088 3.11884 73.2822 3.18988C73.4557 3.26091 73.6419 3.29493 73.8291 3.28978C74.0174 3.2931 74.2042 3.25738 74.3781 3.18484C74.552 3.1123 74.7092 3.0045 74.8398 2.86815V2.88909ZM75.0033 0.673297C75.1597 0.825429 75.2834 1.00821 75.3667 1.21035C75.4501 1.41248 75.4913 1.62967 75.4879 1.84847C75.4912 2.06816 75.45 2.28622 75.3667 2.48931C75.2833 2.69241 75.1597 2.87627 75.0033 3.02963C74.8501 3.19024 74.6651 3.31683 74.4603 3.40129C74.2556 3.48574 74.0355 3.52619 73.8143 3.52003C73.5966 3.51964 73.3811 3.47607 73.1802 3.39182C72.9793 3.30757 72.7968 3.18428 72.6433 3.02903C72.4898 2.87377 72.3682 2.68958 72.2856 2.48701C72.2029 2.28444 72.1607 2.06745 72.1615 1.84847C72.1634 1.51982 72.2616 1.19903 72.444 0.926343C72.6264 0.653659 72.8848 0.44123 73.1867 0.315708C73.4887 0.190186 73.8207 0.157161 74.1413 0.220777C74.4618 0.284393 74.7565 0.441817 74.9884 0.673297H75.0033ZM74.064 1.79465C74.1218 1.77447 74.1715 1.73575 74.2053 1.68442C74.2391 1.6331 74.2553 1.57202 74.2513 1.51057C74.2562 1.45921 74.2479 1.40742 74.227 1.36026C74.2062 1.3131 74.1736 1.27217 74.1324 1.24145C74.0092 1.18649 73.8742 1.16386 73.74 1.17566H73.4724V1.83651H73.7697C73.8704 1.84003 73.971 1.82586 74.067 1.79465H74.064ZM74.5426 2.66183C74.5419 2.69461 74.548 2.72718 74.5604 2.75751V2.78443H74.2631C74.2604 2.77669 74.2604 2.76824 74.2631 2.7605C74.2631 2.7605 74.2631 2.7605 74.2631 2.74256V2.68276V2.53623C74.2796 2.4539 74.2723 2.36856 74.2423 2.2902C74.2123 2.21183 74.1608 2.14367 74.0937 2.09367C73.9803 2.04491 73.8571 2.02341 73.734 2.03088H73.4843V2.75751H73.1722V0.93644H73.8083C73.9766 0.92799 74.145 0.951317 74.3048 1.00522C74.3977 1.03943 74.477 1.10319 74.5306 1.18683C74.5843 1.27048 74.6093 1.36944 74.602 1.46871C74.6066 1.53938 74.5921 1.60999 74.5602 1.67312C74.5283 1.73626 74.4801 1.78959 74.4207 1.82754C74.3402 1.87452 74.2513 1.90501 74.1591 1.91725C74.2207 1.92244 74.2804 1.94088 74.3342 1.97132C74.3881 2.00176 74.4348 2.04349 74.4712 2.09367C74.5307 2.17675 74.5648 2.27548 74.5693 2.37775V2.5153C74.5693 2.55717 74.5693 2.60202 74.5693 2.64687" fill="black"/>
</g>
<defs>
<clipPath id="clip0_73_1108">
<rect width="75.4829" height="21.1352" fill="white"/>
</clipPath>
</defs>
</svg>
