<svg width="66" height="30" viewBox="0 0 66 30" fill="none" xmlns="http://www.w3.org/2000/svg">
<g clip-path="url(#clip0_73_1110)">
<path opacity="0.4" d="M36.5429 20.9086C36.5429 21.0374 36.5781 21.1076 36.6604 21.1076C36.7191 21.1076 36.7661 21.0842 36.8249 21.0491L58.0231 7.31319C58.3991 7.06728 58.7399 6.93847 59.2452 6.93847H63.9102C64.627 6.93847 65.1088 7.41858 65.1088 8.13289V16.9974C65.1088 18.063 64.8738 18.6837 63.9102 19.2574L58.2581 22.6417C58.1876 22.6885 58.1171 22.7119 58.0701 22.7119C57.9996 22.7119 57.9409 22.6651 57.9409 22.466V12.1143C57.9409 11.9972 57.9056 11.9152 57.8234 11.9152C57.7646 11.9152 57.7176 11.9387 57.6588 11.9738L42.1597 22.0093C41.7249 22.2904 41.3724 22.3723 40.9729 22.3723H30.691C29.9742 22.3723 29.4924 21.8922 29.4924 21.1779V8.41394C29.4924 8.32025 29.4454 8.23828 29.3749 8.23828C29.3162 8.23828 29.2692 8.2617 29.2104 8.29683L18.9873 14.4212C18.8816 14.4797 18.8581 14.5383 18.8581 14.5851C18.8581 14.632 18.8698 14.6671 18.9521 14.7374L26.2493 22.0093C26.3433 22.103 26.4138 22.185 26.4138 22.2552C26.4138 22.3372 26.308 22.384 26.1787 22.384H19.5749C19.0578 22.384 18.6583 22.3021 18.3763 22.021L13.9463 17.6063C13.8993 17.5595 13.864 17.5361 13.817 17.5361C13.7818 17.5361 13.723 17.5595 13.676 17.5829L6.27309 22.021C5.82656 22.2904 5.52104 22.3723 5.07452 22.3723H-1.74088C-2.45767 22.3723 -2.93945 21.8922 -2.93945 21.1779V12.4773C-2.93945 11.4 -2.70444 10.7911 -1.74088 10.2173L3.94645 6.80966C4.0052 6.77453 4.05221 6.76282 4.09921 6.76282C4.18146 6.76282 4.22847 6.8565 4.22847 7.04386V18.6837C4.22847 18.8008 4.26372 18.8593 4.34597 18.8593C4.39298 18.8593 4.45173 18.8242 4.51048 18.789L23.7229 7.27806C24.1811 7.00873 24.4631 6.92676 24.9919 6.92676H35.3325C36.0493 6.92676 36.5311 7.40687 36.5311 8.12118L36.5429 20.9086Z" fill="black"/>
</g>
<defs>
<clipPath id="clip0_73_1110">
<rect width="65.1057" height="29.8401" fill="white"/>
</clipPath>
</defs>
</svg>
