<svg width="125" height="17" viewBox="0 0 125 17" fill="none" xmlns="http://www.w3.org/2000/svg">
<g clip-path="url(#clip0_73_1106)">
<path opacity="0.4" d="M29.0889 7.51605C29.0527 7.00694 28.8222 6.53207 28.4463 6.19201C28.0704 5.85194 27.5785 5.67338 27.0749 5.69413C24.7654 5.69413 24.3895 7.66222 24.3895 9.40595C24.3895 11.0341 25.0944 12.7031 26.8432 12.7031C28.2799 12.7031 29.0083 11.8805 29.1929 10.548H33.221C32.8551 13.9166 30.2301 15.8574 26.8734 15.8574C23.0804 15.8574 20.2607 13.2639 20.2607 9.39915C20.2607 5.39841 22.8152 2.53638 26.8734 2.53638C30.012 2.53638 32.8081 4.18493 33.0968 7.50925L29.0889 7.51605Z" fill="black"/>
<path opacity="0.4" d="M63.3164 2.90716H67.3243V4.68489H67.3747C68.1266 3.36264 69.3887 2.54346 71.1778 2.54346C75.3837 2.54346 75.8772 5.60264 75.8772 7.41776V15.494H71.7518V9.40624C71.7518 7.68629 71.829 5.93576 69.6841 5.93576C68.2407 5.93576 67.4485 7.12204 67.4485 8.96096V15.494H63.3164V2.90716Z" fill="black"/>
<path opacity="0.4" d="M77.2612 6.78893C77.2626 6.10043 77.4461 5.42488 77.7926 4.8325C78.1391 4.24012 78.636 3.75253 79.2316 3.42042C80.3494 2.78819 81.8095 2.54346 83.2428 2.54346C86.2337 2.54346 89.1305 3.19948 89.1305 6.76174V12.2683C89.1305 13.3356 89.1305 14.5015 89.6172 15.494H85.4549C85.3272 15.11 85.2461 14.7116 85.2132 14.3077C84.1458 15.4226 82.5648 15.8577 81.0543 15.8577C78.6475 15.8577 76.751 14.6476 76.751 12.0507C76.751 7.95142 81.2255 8.26754 84.0954 7.68629C84.8004 7.54013 85.1897 7.29879 85.1897 6.5204C85.1897 5.57545 84.0484 5.21175 83.1958 5.21175C82.0512 5.21175 81.3228 5.72161 81.1281 6.78893H77.2612ZM82.6118 13.3118C84.5822 13.3118 85.2367 12.1969 85.1427 9.59999C84.5587 9.96709 83.4879 10.0385 82.5883 10.2798C81.6887 10.5211 80.8864 10.8882 80.8864 11.8808C80.8864 12.8733 81.6887 13.3118 82.6118 13.3118Z" fill="black"/>
<path opacity="0.4" d="M90.4756 0.109131H94.6077V15.5002H90.4756V0.109131Z" fill="black"/>
<path opacity="0.4" d="M108.589 15.4935H104.645V14.0454H104.598C104.219 14.6229 103.701 15.0929 103.092 15.4111C102.484 15.7293 101.805 15.8852 101.121 15.864C97.1598 15.864 95.4814 12.4649 95.4814 8.92639C95.4814 5.65306 97.2303 2.54968 100.805 2.54968C101.498 2.51673 102.189 2.65664 102.817 2.95712C103.444 3.2576 103.989 3.70946 104.404 4.27303H104.454V0.109131H108.589V15.4935ZM99.6135 9.06576C99.6135 10.7891 100.245 12.7028 102.144 12.7028C104.159 12.7028 104.598 10.7891 104.598 9.18812C104.598 7.3696 103.944 5.69385 102.144 5.69385C100.245 5.69385 99.6135 7.46818 99.6135 9.06576Z" fill="black"/>
<path opacity="0.4" d="M111.381 4.2668H109.444V0.102905H113.311L111.381 4.2668Z" fill="black"/>
<path opacity="0.4" d="M40.7188 0.109131H34.0859V15.5002H40.7188C45.4182 15.5002 48.2814 12.781 48.2814 7.74011C48.2848 2.96778 45.4551 0.109131 40.7188 0.109131ZM40.3428 11.9346H38.4866V3.67139H40.3428C42.7462 3.67139 43.8237 5.27236 43.8237 7.72311C43.8271 10.4186 42.9577 11.9278 40.3462 11.9278L40.3428 11.9346Z" fill="black"/>
<path opacity="0.4" d="M12.3841 15.4945L14.0356 9.32512C14.2236 8.60451 14.4082 7.76154 14.4821 7.33325H14.5358C14.576 7.67316 14.7036 8.58752 14.8714 9.37271L16.0463 15.4911H20.5778L17.389 0.0761719H12.562L10.6286 7.81932C10.4641 8.42096 10.266 9.3897 10.1452 9.89956H10.0982C9.97737 9.3897 9.77933 8.42096 9.61821 7.81932L7.68474 0.0761719H2.85781L-0.331055 15.4911H4.22398L5.39547 9.37271C5.54988 8.58752 5.67408 7.67316 5.73114 7.33325H5.77478C5.84863 7.76154 6.03325 8.60451 6.21787 9.32512L7.87272 15.4945H12.3841Z" fill="black"/>
<path opacity="0.4" d="M55.788 2.54346C51.713 2.54346 49.1484 5.42929 49.1484 9.21249C49.1484 12.9957 51.713 15.8815 55.788 15.8815C59.863 15.8815 62.4276 12.9957 62.4276 9.21249C62.4276 5.42929 59.8496 2.54346 55.788 2.54346ZM55.788 12.7408C53.9989 12.7408 53.2839 11.2384 53.2839 9.22268C53.2839 7.20702 53.9989 5.70462 55.788 5.70462C57.5771 5.70462 58.2921 7.20702 58.2921 9.22268C58.2921 11.2384 57.5738 12.7306 55.788 12.7306V12.7408Z" fill="black"/>
<path opacity="0.4" d="M116.271 11.3471C116.264 11.619 116.321 11.8886 116.438 12.1335C116.555 12.3784 116.728 12.5913 116.943 12.7544C117.369 13.0553 117.88 13.2079 118.4 13.1894C119.192 13.1894 120.32 12.8495 120.32 11.857C120.32 10.8645 119.047 10.6911 118.329 10.5211C115.761 9.86512 112.438 9.79373 112.438 6.39803C112.438 3.36604 115.795 2.54346 118.232 2.54346C120.971 2.54346 123.824 3.34225 123.968 6.62238H120.148C120.165 6.40938 120.125 6.19576 120.032 6.00382C119.94 5.81189 119.798 5.64869 119.621 5.53127C119.245 5.30642 118.812 5.19773 118.376 5.21855C117.705 5.21855 116.624 5.28993 116.624 6.1635C116.624 7.35318 119.47 7.57072 121.323 7.98202C123.844 8.49188 124.492 10.3342 124.492 11.3811C124.492 14.7496 121.216 15.8679 118.41 15.8679C115.456 15.8679 112.431 14.8754 112.311 11.3573L116.271 11.3471Z" fill="black"/>
<path opacity="0.4" d="M123.534 0.109184C123.728 0.109189 123.917 0.167378 124.078 0.276369C124.239 0.385361 124.364 0.540243 124.438 0.721381C124.511 0.902518 124.53 1.10175 124.492 1.29381C124.454 1.48586 124.36 1.6621 124.223 1.80015C124.085 1.93821 123.911 2.03188 123.721 2.06928C123.531 2.10667 123.334 2.08611 123.156 2.0102C122.978 1.93429 122.826 1.80645 122.719 1.6429C122.612 1.47934 122.556 1.28745 122.558 1.09153C122.557 0.961824 122.582 0.833321 122.631 0.713487C122.68 0.593653 122.752 0.484871 122.843 0.393473C122.934 0.302074 123.042 0.229874 123.161 0.18107C123.279 0.132267 123.406 0.107832 123.534 0.109184ZM123.534 1.9379C123.7 1.94467 123.864 1.90114 124.005 1.81287C124.147 1.72461 124.258 1.59565 124.327 1.44254C124.395 1.28943 124.417 1.11914 124.389 0.953544C124.361 0.787948 124.284 0.634594 124.17 0.513149C124.055 0.391703 123.907 0.30771 123.745 0.27195C123.583 0.236191 123.414 0.250292 123.26 0.312447C123.106 0.374603 122.974 0.481978 122.88 0.620791C122.787 0.759605 122.736 0.923532 122.736 1.09153C122.732 1.20019 122.75 1.30848 122.788 1.40998C122.827 1.51147 122.885 1.60411 122.96 1.68241C123.034 1.7607 123.123 1.82306 123.222 1.86578C123.321 1.90849 123.427 1.9307 123.534 1.9311V1.9379ZM123.155 0.51708H123.598C123.863 0.51708 123.994 0.625851 123.994 0.85699C123.997 0.897809 123.991 0.938667 123.977 0.976998C123.962 1.01533 123.941 1.0503 123.913 1.07968C123.885 1.10907 123.851 1.13225 123.813 1.14774C123.776 1.16324 123.736 1.17071 123.696 1.1697L124.031 1.67957H123.843L123.534 1.1833H123.346V1.67957H123.169L123.155 0.51708ZM123.333 1.03034H123.518C123.672 1.03034 123.816 1.03034 123.816 0.839988C123.816 0.649639 123.689 0.663239 123.568 0.663239H123.333V1.03034Z" fill="black"/>
</g>
<defs>
<clipPath id="clip0_73_1106">
<rect width="124.595" height="16.0768" fill="white"/>
</clipPath>
</defs>
</svg>
