<svg width="89" height="37" viewBox="0 0 89 37" fill="none" xmlns="http://www.w3.org/2000/svg">
<g clip-path="url(#clip0_73_1109)">
<path opacity="0.4" d="M1.72516 14.6296C2.7691 10.7771 7.11842 9.8613 11.1221 9.74787C14.415 9.65405 18.084 10.0938 18.084 10.0938L16.3599 16.4557C16.3599 16.4557 12.6894 16.016 9.39789 16.1098C5.39424 16.2232 1.04492 17.1391 0.000976562 20.9915L1.72516 14.6296Z" fill="black"/>
<path opacity="0.4" d="M38.4997 11.4915L34.4238 26.5259H37.8486L39.3576 20.958H42.3326C45.6157 20.958 47.7939 19.1305 48.3825 16.5888C48.9322 14.2166 47.5593 11.4915 43.8818 11.4915C42.0869 11.4915 40.2933 11.4915 38.4997 11.4915ZM41.4441 13.2601H42.7615C44.14 13.2601 45.234 14.3734 44.9702 16.3116C44.7245 18.1082 42.7921 19.1851 41.1068 19.1851H39.8393L41.4441 13.2601Z" fill="black"/>
<path opacity="0.4" d="M73.9209 16.1726C71.0417 16.1726 68.9636 18.6723 68.4652 21.1706C67.9863 23.5722 69.3509 26.7623 73.1074 26.7623C75.777 26.7623 77.1194 25.5761 77.1194 25.5761L76.5044 24.0455C76.5044 24.0455 75.3827 24.967 73.8182 24.967C72.2551 24.967 71.2736 23.722 71.4901 21.7363H77.8774C78.3327 20.567 78.5826 16.1726 73.9209 16.1726ZM73.9084 17.8321C75.6951 17.8321 75.2883 20.2127 75.2883 20.2127L71.7095 20.2043C71.7095 20.2043 72.3036 17.8321 73.9084 17.8321Z" fill="black"/>
<path opacity="0.4" d="M49.7537 15.7921L44.123 36.5625H47.409L52.4011 18.1462H55.8133L53.5422 26.526H56.8267L59.5504 16.4769H52.8536C53.1965 15.2096 53.563 13.861 53.8615 12.7603C54.4126 10.7284 55.3122 9.25238 56.6199 9.30139C58.0664 9.3574 57.3307 10.3153 57.1321 11.0463C56.8587 12.0559 57.5986 13.0726 58.8938 13.0726C61.7091 13.0726 62.4032 7.8562 57.1321 7.8562C51.861 7.8562 50.5103 13.0054 49.7537 15.7921Z" fill="black"/>
<path opacity="0.4" d="M60.7928 16.4772L60.3402 18.1464H64.5035L57.958 26.5263H67.2022L67.6548 24.857H62.957L69.5039 16.4772H60.7928Z" fill="black"/>
<path opacity="0.4" d="M86.6504 16.3076C84.5084 16.3076 83.2451 18.5398 83.2451 18.5398L83.8046 16.4771H80.5186L77.7949 26.5262H81.0795C81.0795 26.5262 81.8708 23.5896 82.2734 22.1248C82.8953 19.8324 84.1627 18.3984 84.7722 18.3396C85.476 18.2709 85.4094 19.9836 86.7823 19.9836C88.8661 19.9836 89.3158 16.3076 86.6504 16.3076Z" fill="black"/>
<path opacity="0.4" d="M26.7136 26.55C14.9331 25.8092 1.24234 19.677 1.72545 14.63L0.0998324 20.6264C-0.392989 25.7756 12.3065 31.8882 24.9894 32.9119L26.7136 26.55Z" fill="black"/>
<path opacity="0.4" d="M30.9937 18.2829C29.9497 22.1354 25.6004 23.0512 21.5967 23.1646C18.3052 23.2585 14.6348 22.8187 14.6348 22.8187L16.3589 16.4568C16.3589 16.4568 20.0294 16.8966 23.3209 16.8027C27.3246 16.6893 31.6739 15.7735 32.7178 11.921L30.9937 18.2829Z" fill="black"/>
<path opacity="0.4" d="M6.00977 6.36191C17.7903 7.10271 31.481 13.235 30.9979 18.2819L32.6235 12.2855C33.1163 7.13632 20.4168 1.02367 7.73395 0L6.00977 6.36191Z" fill="black"/>
<path opacity="0.4" d="M1.72516 14.6296C2.7691 10.7771 7.11842 9.8613 11.1221 9.74787C14.415 9.65405 18.084 10.0938 18.084 10.0938L16.3599 16.4557C16.3599 16.4557 12.6894 16.016 9.39789 16.1098C5.39424 16.2232 1.04492 17.1391 0.000976562 20.9915L1.72516 14.6296Z" fill="black"/>
<path opacity="0.4" d="M26.7136 26.55C14.9331 25.8092 1.24234 19.677 1.72545 14.63L0.0998324 20.6264C-0.392989 25.7756 12.3065 31.8882 24.9894 32.9119L26.7136 26.55Z" fill="black"/>
<path opacity="0.4" d="M30.9937 18.2829C29.9497 22.1354 25.6004 23.0512 21.5967 23.1646C18.3052 23.2585 14.6348 22.8187 14.6348 22.8187L16.3589 16.4568C16.3589 16.4568 20.0294 16.8966 23.3209 16.8027C27.3246 16.6893 31.6739 15.7735 32.7178 11.921L30.9937 18.2829Z" fill="black"/>
<path opacity="0.4" d="M6.00977 6.36191C17.7903 7.10271 31.481 13.235 30.9979 18.2819L32.6235 12.2855C33.1163 7.13632 20.4168 1.02367 7.73395 0L6.00977 6.36191Z" fill="black"/>
</g>
<defs>
<clipPath id="clip0_73_1109">
<rect width="88.4912" height="36.5666" fill="white"/>
</clipPath>
</defs>
</svg>
