<svg width="241" height="64" viewBox="0 0 241 64" fill="none" xmlns="http://www.w3.org/2000/svg">
<g clip-path="url(#clip0_51_1722)">
<g clip-path="url(#clip1_51_1722)">
<mask id="mask0_51_1722" style="mask-type:luminance" maskUnits="userSpaceOnUse" x="1" y="8" width="99" height="53">
<path d="M99.0338 8H1V60.3589H99.0338V8Z" fill="white"/>
</mask>
<g mask="url(#mask0_51_1722)">
<path d="M215.244 38.5371L220.137 35.5014C220.319 35.3881 220.865 35.3603 221.075 35.3677C221.284 35.3751 221.671 35.8839 221.563 36.0788C220.488 38.0339 218.317 38.6541 216.232 39.4376C216.696 40.8487 220.133 40.0633 221.377 39.4859C223.212 38.6336 224.736 37.3767 226.292 36.0862C227.566 35.0316 229.315 35.4438 230.637 36.1624C234.873 38.4647 237.291 35.8189 238.724 36.0751C240.176 36.335 234.879 39.5007 230.837 37.3767C230.15 38.927 229.465 40.1617 228.093 40.923C227.265 41.3834 226.242 41.4001 225.597 40.8413C224.914 40.2471 224.591 39.2798 224.87 38.5204C223.208 39.6994 221.47 40.6296 219.515 41.0659C218.44 41.3054 215.597 41.3611 215.081 40.0986L214.223 42.1855C214.054 42.594 213.722 43.0025 213.399 42.9096C212.933 42.7741 212.677 42.2913 212.814 41.868L213.856 38.6466C212.586 39.3466 209.905 41.5449 208.494 40.5368C208.196 40.3251 207.892 39.6363 207.949 39.2389L208.326 36.6693C206.769 36.7881 203.826 39.7087 202.587 40.8413C202.346 41.0622 201.741 41.2423 201.451 41.1476C201.145 41.0473 200.866 40.3585 200.97 40.041L201.705 37.8111C199.607 39.7625 193.371 43.3497 191.824 39.6325C189.375 41.4261 183.177 43.1157 182.299 38.9641C180.962 40.0484 177.741 42.0444 176.116 40.7781C174.989 39.8999 175.663 38.1082 176.215 36.699C175.338 36.8438 174.165 36.9422 173.123 36.9923C172.865 38.0042 172.438 38.9957 171.738 39.8368C170.786 40.9805 169.066 41.699 167.858 40.52C167.178 39.8572 167.356 38.5928 167.524 37.7424C166.421 38.758 163.446 41.0306 161.773 40.5535C160.1 40.0763 161.283 37.2225 161.281 36.1104C160.277 36.5133 159.634 36.8661 158.957 37.4732L155.992 40.1301C155.704 40.3882 155.295 40.6612 155.009 40.5962C153.487 40.2545 155.802 37.5382 155.86 35.8579C154.146 36.5021 151.456 39.315 150.167 40.78C150.013 40.9545 149.541 41.0863 149.313 41.0659C147.802 40.9285 149.638 38.3236 149.684 37.8742C148.283 38.9066 143.383 42.2431 142.005 40.2564C141.803 39.963 141.715 39.3039 141.619 38.7283C140.414 39.7142 136.652 43.1139 135.328 40.8413C134.983 40.249 135.237 39.4896 135.65 38.6949L129.207 40.2415C129.051 40.2267 128.447 40.132 128.399 40.1301L129.485 41.4521C131.416 43.8027 129.424 46.6453 127.315 48.0193C124.84 49.6327 122.144 50.7338 119.242 51.4894C113.897 52.882 108.473 53.5597 102.946 53.192C101.546 53.0992 99.9582 52.8355 99.2156 51.612C98.588 50.5778 99.4328 49.1444 100.367 48.4853C103.449 46.3092 106.824 44.9464 110.424 43.8045C113.785 42.7388 117.058 41.881 120.493 41.0956L125.993 39.8368C122.853 38.292 119.738 37.3915 116.459 36.4966C114.188 35.8764 111.984 35.0613 110.126 33.732C105.976 30.7631 108.545 25.4733 111.49 22.4803C114.671 19.2497 118.377 16.6299 122.5 14.7509L123.174 14.4427C126.212 13.0576 131.793 11.4775 134.907 12.7754C135.228 12.9091 135.657 13.169 136.006 13.3547C137.003 13.8801 137.612 15.2912 137.193 16.3811C136.121 19.1661 133.667 21.1287 131.381 22.8535C131.214 22.9798 130.716 22.8573 130.596 22.7347C130.447 22.5825 130.579 22.044 130.765 21.9048C132.562 20.5735 136.078 17.8126 135.999 15.4806C135.926 13.3621 132.161 13.3695 130.624 13.5515C123.891 14.3461 117.042 18.7595 112.428 23.5869C110.126 25.9951 107.649 30.6721 111.36 33.2009C112.756 34.1516 114.364 34.7958 116.037 35.3009L123.184 37.4583C124.793 37.9448 126.297 38.797 127.788 39.5081C129.992 39.1498 132.137 38.6522 134.246 38.1732C135.512 37.8854 136.413 37.321 137.269 36.3926C138.383 35.1876 139.719 34.1831 141.379 33.9678C142.473 33.8266 144.142 34.3632 144.278 35.5329C143.821 36.6507 143.024 37.8148 142.831 39.1108C142.592 40.715 146.066 39.0551 146.777 38.6244C148.504 37.5772 149.976 36.348 151.352 34.8441C151.48 34.7049 151.823 34.5638 151.996 34.5415C153.444 34.3669 151.339 37.5456 151.09 37.878C151.279 37.8835 151.615 37.735 151.808 37.566C153.01 36.5096 154.139 35.6295 155.468 34.8515C155.773 35.299 155.815 35.3529 155.906 34.8887C156.428 34.8441 156.9 35.2786 157.02 35.8987C157.165 36.6488 156.757 37.4008 156.478 38.1546C157.915 37.0703 160.596 34.2852 162.069 35.4011C162.355 35.6184 162.624 36.2998 162.548 36.6711L162.18 38.4517C162.093 38.8769 162.212 39.4042 162.39 39.7217C163.654 39.1869 164.625 38.7469 165.628 37.9968L169.312 35.2322C170.572 34.2871 171.71 34.9258 172.737 35.6276C174.219 36.6414 176.269 35.8597 177.566 34.937C177.721 34.8274 178.367 34.8664 178.539 34.9407C178.747 35.0298 178.645 35.5162 178.473 35.7632C177.88 36.608 176.256 39.1554 176.904 39.9872C177.481 40.728 181.514 38.8416 181.913 37.7257L183.205 34.1089C184.455 30.6108 191.637 21.7897 196.163 20.3953C196.913 20.165 197.986 20.4881 198.07 21.3719C198.176 22.4878 197.728 23.5702 197.071 24.5339C193.441 29.8552 188.842 34.3205 183.785 38.344C183.597 39.5991 184.731 40.5757 186.018 40.5405C187.99 40.4885 190.177 39.9835 191.707 38.7172C192.335 36.6785 193.686 34.7569 195.983 34.5285C196.544 34.4728 197.266 34.7383 197.533 35.1375C198.644 36.7955 194.648 38.8917 193.146 39.3206C193.285 40.8245 196.421 40.0057 197.55 39.458C199.475 38.5241 201.07 37.3024 202.463 35.6555C202.632 35.455 203.035 35.2823 203.246 35.3269C203.516 35.3826 203.93 35.9377 203.82 36.2051L202.604 39.1851C204.362 38.0915 206.85 35.1356 208.993 35.6536C209.318 35.7316 209.628 36.2123 209.65 36.6915C209.693 37.6143 209.158 39.6975 209.333 39.9092C209.507 40.1209 210.69 39.3392 210.69 39.3392C215.243 37.4286 215.181 34.9871 217.426 31.5503C219.268 28.73 221.331 26.2346 223.947 24.1161C224.715 23.4941 225.816 22.9482 226.791 23.3938C227.161 23.5628 227.172 24.6508 227.009 25.0407C225.217 29.3334 220.85 33.368 217.261 36.1717C216.42 36.8289 215.67 37.4602 215.241 38.5352L215.244 38.5371ZM190.012 31.205C192.4 28.7783 196.159 24.8885 197.197 21.578C195.246 20.9059 190.909 25.5253 189.635 27.1072C186.792 30.6368 185.552 32.5325 183.72 36.8605C186.094 35.1709 188.003 33.2474 190.012 31.2068V31.205ZM226.123 24.3315C223.156 24.9052 218.256 32.6699 217.127 34.8887C220.371 32.6086 225.063 27.707 226.123 24.3315ZM142.77 35.1542C142.209 34.794 141.426 34.8478 140.819 35.1653C138.888 36.1791 137.343 37.6217 136.428 39.6158C136.307 39.8795 136.338 40.4551 136.522 40.6147C137.391 41.3723 142.406 36.9366 142.77 35.1523V35.1542ZM196.501 35.5757C195.673 34.9592 193.278 37.2188 193.3 38.3551C193.853 38.266 197.238 36.1252 196.501 35.5757ZM171.699 36.97C171.71 36.6711 171.577 36.2738 171.404 36.1382C170.349 35.3176 167.774 38.6596 168.771 39.8999C169.313 40.5757 171.625 39.0403 171.699 36.9682V36.97ZM227.116 40.1376C229.062 39.2074 229.825 36.9143 229.225 36.4743C228.626 36.0343 226.13 37.1538 226.075 39.5601C226.063 40.015 226.676 40.3492 227.114 40.1394L227.116 40.1376ZM114.708 51.4672C118.195 50.8489 121.505 50.0078 124.669 48.4537C126.658 47.4771 130.087 44.8127 128.488 42.2022C128.132 41.6211 127.567 40.9489 126.845 40.728C120.971 41.8086 115.313 43.1547 109.654 45.0374C107.857 45.6353 99.7874 48.7155 100.311 50.8749C100.905 53.3276 112.417 51.8738 114.708 51.4653V51.4672Z" fill="black"/>
<path d="M86.8964 34.8776C87.4739 35.0967 87.9826 35.8691 87.7579 36.3481C87.3718 37.1725 86.9503 37.9597 86.9688 38.7692C87.0301 41.5172 95.9738 37.9189 97.2772 37.3916C97.4945 37.3043 98.0533 37.4696 98.1944 37.581C98.3727 37.7202 97.9958 38.2382 97.7563 38.3459C95.0733 39.5453 92.3124 40.3047 89.3918 40.793C88.4338 40.9527 87.5147 40.8822 86.6031 40.4588C86.0498 40.2008 85.8084 39.356 85.736 38.7433C84.6851 40.0819 83.1979 41.5617 81.5993 41.7158C80.4184 41.8309 79.5402 40.8525 79.698 39.7979L78.7474 40.249C78.7214 41.0586 76.6048 41.7771 75.6411 41.8198C74.3581 41.8755 73.3295 40.897 73.4836 39.5231C73.6118 38.3701 74.2245 37.243 74.6422 36.324C72.2007 36.8216 70.2214 34.4803 69.0944 36.3463C68.2459 37.7499 67.57 39.096 66.8125 40.5721C66.6621 40.8673 66.159 41.196 65.8972 41.1291C64.5306 40.7763 66.2388 38.2809 66.6993 37.5401L67.596 36.103L64.1834 36.842C63.9216 38.8342 62.7705 40.6092 60.9472 41.4633C60.1284 41.8458 59.2186 41.5023 58.7266 40.949C58.1566 40.3085 58.3051 39.4247 58.4407 38.6114C56.6304 39.9761 53.7543 42.7166 51.8642 41.7845C50.3009 41.014 50.8486 38.474 51.2571 36.8736C49.1701 39.0348 46.7342 40.7281 43.9788 41.9256C42.8258 42.4269 41.554 42.4771 40.4845 41.8904C39.7808 41.506 39.6193 40.806 39.7158 40.0429C38.5832 40.9973 37.5194 41.8402 36.2308 42.1429C35.1892 42.388 34.2423 41.8774 33.9972 40.7912C33.8672 40.2175 34.038 39.2353 34.1569 38.7321C34.1717 38.6708 33.9731 38.3775 33.9563 38.4369C33.4977 40.0132 28.0242 42.2654 26.2826 42.7147L18.7796 58.2293C18.6199 58.5617 18.1168 58.7362 17.8587 58.6954C17.6006 58.6545 16.9303 58.2423 17.0176 57.9824C17.1587 57.5553 17.5783 57.0856 17.7751 56.7254C20.1833 52.3064 22.209 47.8039 24.3368 43.1566C19.9661 43.7396 15.3187 44.0404 10.7735 42.4808C8.0256 41.5989 5.66574 40.0262 4.0634 37.5865C1.06298 33.0135 2.91225 26.8455 5.72886 22.59C7.46302 19.9702 9.62236 17.8368 12.4445 16.4183C16.0725 14.5932 20.4451 15.0666 23.3564 17.9315C28.5255 23.0189 28.6666 32.4973 26.6577 39.0515C27.3316 38.2605 27.5452 37.3025 27.9741 36.3165C30.3061 30.9451 33.1617 25.9358 36.708 21.2606C40.4882 16.2791 46.4259 10.4806 52.8056 9.47239C54.419 9.21802 57.6813 9.27001 57.6868 11.5203C57.6868 11.7636 57.167 12.1108 56.9516 12.0829C56.1476 11.9752 56.6731 10.4917 54.8535 10.4732C46.8456 10.3877 39.2777 19.0344 35.3526 25.2525C33.9006 27.5529 32.614 29.7995 31.4238 32.2597L27.0457 41.3222C28.8708 40.6705 30.3618 39.9315 31.8583 39.0348C35.7703 36.6935 36.0414 33.6113 37.0812 34.2203C37.3188 34.3596 37.5379 34.9742 37.4135 35.2062L35.3303 39.1239C35.011 39.7236 34.9831 40.7949 35.5754 41.2201C40.8893 39.796 39.74 36.5505 43.2361 34.7625C44.352 34.1925 45.8411 34.3744 46.2328 35.6203C46.3257 35.9155 46.0398 36.5189 45.8169 36.6248C45.0074 37.011 44.9257 35.8022 44.4597 35.6574C43.4664 35.3492 39.8328 39.6642 41.1046 40.9416C42.4118 42.2543 46.8901 39.2984 48.1415 38.2364L49.7624 36.8624C51.6173 35.2898 53.0265 33.3941 53.8583 31.2979L44.6157 31.4631C44.4337 31.4668 44.0289 31.257 43.8971 31.1345C43.7393 30.986 44.2425 30.3937 44.5321 30.3881L54.5509 30.1634L58.578 23.0931C58.773 22.7515 59.3987 22.5881 59.6475 22.7367C60.0653 22.9836 60.1358 23.3939 59.9037 23.795L56.2108 30.2043L64.5158 29.9425C65.316 29.9165 69.9355 29.4579 69.6774 30.377C69.6291 30.5478 69.2745 30.8541 69.0944 30.8597L55.6816 31.3332L53.2122 36.0306C52.8056 36.8049 51.4112 40.3214 52.3915 40.7986C53.5557 41.3649 56.0251 39.2706 56.9701 38.5223C59.6252 36.4242 59.9761 34.4041 61.8885 34.1906C63.6413 33.9938 63.5076 36.3054 65.0561 35.8561L66.9666 35.3028C67.7334 35.08 68.4186 34.8442 69.2002 34.575C71.2964 33.8508 72.9582 36.3964 75.4796 34.9055C75.7005 34.7755 76.2687 34.8609 76.3875 35.0484C76.5063 35.2359 76.5119 35.7744 76.4005 35.9675C75.9568 36.7473 73.4019 41.0753 75.7989 40.7615C77.1413 40.5851 78.2256 39.9074 79.1856 39.0162C80.9494 37.3767 80.1975 37.6627 81.8444 36.09C83.1738 34.82 85.0583 34.1813 86.8946 34.8795L86.8964 34.8776ZM24.6153 41.8792C26.6855 34.8405 28.065 23.7151 21.9584 18.4347C19.5688 16.3682 16.4179 15.9207 13.527 17.2631C8.7887 19.4652 5.42436 24.6658 4.23236 29.7067C3.81275 31.4836 3.99471 33.1267 4.23608 34.898C4.28992 35.2954 4.40504 35.4439 4.59999 35.8097C5.98509 38.3942 8.08873 40.3994 10.9629 41.2665C15.8275 42.7333 19.6078 42.7296 24.6153 41.8811V41.8792ZM62.945 36.7863C63.0193 36.116 62.7315 35.728 62.0426 35.3529C60.6687 36.1327 58.903 38.8547 59.5565 40.5127C59.8406 41.2312 62.6646 39.3337 62.9431 36.7863H62.945ZM86.3023 35.8394C83.8403 34.3763 79.8985 39.7124 81.1741 40.5814C82.4496 41.4503 85.9439 37.3396 86.3023 35.8394Z" fill="black"/>
<path d="M39.2035 31.257C38.6929 31.5262 38.1879 31.3461 38.0115 30.9952C37.8351 30.6442 38.1062 30.0315 38.5499 29.8997C38.9306 29.7864 39.4189 29.9758 39.5841 30.2878C39.7104 30.5236 39.5414 31.0787 39.2016 31.257H39.2035Z" fill="black"/>
<path d="M78.5751 30.2358C78.5844 30.5514 78.1444 31.0323 77.9048 31.0546C77.6133 31.0806 77.1176 30.8169 77.0155 30.5551C76.9134 30.2933 77.2049 29.5767 77.4852 29.5339L78.1685 29.43C78.3505 29.4021 78.5677 29.8719 78.577 30.2376L78.5751 30.2358Z" fill="black"/>
</g>
</g>
<g clip-path="url(#clip2_51_1722)">
<mask id="mask1_51_1722" style="mask-type:luminance" maskUnits="userSpaceOnUse" x="99" y="8" width="143" height="53">
<path d="M242 8H99.2197V60.3589H242V8Z" fill="white"/>
</mask>
<g mask="url(#mask1_51_1722)">
<path d="M216.173 38.5371L221.066 35.5014C221.248 35.3881 221.793 35.3603 222.003 35.3677C222.213 35.3751 222.599 35.8839 222.492 36.0788C221.417 38.0339 219.246 38.6541 217.161 39.4376C217.625 40.8487 221.062 40.0633 222.306 39.4859C224.14 38.6336 225.665 37.3767 227.221 36.0862C228.494 35.0316 230.243 35.4438 231.565 36.1624C235.802 38.4647 238.22 35.8189 239.653 36.0751C241.105 36.335 235.808 39.5007 231.766 37.3767C231.079 38.927 230.394 40.1617 229.022 40.923C228.193 41.3834 227.17 41.4001 226.526 40.8413C225.843 40.2471 225.52 39.2798 225.798 38.5204C224.137 39.6994 222.399 40.6296 220.444 41.0659C219.369 41.3054 216.526 41.3611 216.01 40.0986L215.152 42.1855C214.983 42.594 214.651 43.0025 214.328 42.9096C213.862 42.7741 213.605 42.2913 213.743 41.868L214.784 38.6466C213.514 39.3466 210.833 41.5449 209.422 40.5368C209.125 40.3251 208.821 39.6363 208.878 39.2389L209.255 36.6693C207.697 36.7881 204.755 39.7087 203.516 40.8413C203.275 41.0622 202.669 41.2423 202.38 41.1476C202.073 41.0473 201.795 40.3585 201.899 40.041L202.634 37.8111C200.536 39.7625 194.299 43.3497 192.753 39.6325C190.304 41.4261 184.106 43.1157 183.228 38.9641C181.891 40.0484 178.67 42.0444 177.045 40.7781C175.918 39.8999 176.592 38.1082 177.144 36.699C176.267 36.8438 175.094 36.9422 174.052 36.9923C173.794 38.0042 173.367 38.9957 172.667 39.8368C171.715 40.9805 169.995 41.699 168.787 40.52C168.107 39.8572 168.285 38.5928 168.452 37.7424C167.349 38.758 164.375 41.0306 162.702 40.5535C161.029 40.0763 162.212 37.2225 162.21 36.1104C161.206 36.5133 160.563 36.8661 159.885 37.4732L156.92 40.1301C156.633 40.3882 156.224 40.6612 155.938 40.5962C154.416 40.2545 156.731 37.5382 156.789 35.8579C155.075 36.5021 152.384 39.315 151.096 40.78C150.942 40.9545 150.47 41.0863 150.242 41.0659C148.73 40.9285 150.567 38.3236 150.613 37.8742C149.211 38.9066 144.312 42.2431 142.934 40.2564C142.731 39.963 142.644 39.3039 142.548 38.7283C141.343 39.7142 137.581 43.1139 136.257 40.8413C135.912 40.249 136.166 39.4896 136.578 38.6949L130.136 40.2415C129.98 40.2267 129.376 40.132 129.328 40.1301L130.414 41.4521C132.345 43.8027 130.353 46.6453 128.244 48.0193C125.769 49.6327 123.073 50.7338 120.171 51.4894C114.825 52.882 109.402 53.5597 103.874 53.192C102.474 53.0992 100.887 52.8355 100.144 51.612C99.5167 50.5778 100.362 49.1444 101.295 48.4853C104.378 46.3092 107.753 44.9464 111.353 43.8045C114.714 42.7388 117.987 41.881 121.422 41.0956L126.922 39.8368C123.782 38.292 120.666 37.3915 117.387 36.4966C115.117 35.8764 112.913 35.0613 111.054 33.732C106.905 30.7631 109.474 25.4733 112.419 22.4803C115.599 19.2497 119.305 16.6299 123.429 14.7509L124.103 14.4427C127.141 13.0576 132.722 11.4775 135.836 12.7754C136.157 12.9091 136.586 13.169 136.935 13.3547C137.932 13.8801 138.541 15.2912 138.121 16.3811C137.05 19.1661 134.595 21.1287 132.31 22.8535C132.143 22.9798 131.645 22.8573 131.524 22.7347C131.376 22.5825 131.508 22.044 131.693 21.9048C133.491 20.5735 137.007 17.8126 136.927 15.4806C136.855 13.3621 133.09 13.3695 131.552 13.5515C124.82 14.3461 117.97 18.7595 113.357 23.5869C111.054 25.9951 108.577 30.6721 112.289 33.2009C113.685 34.1516 115.293 34.7958 116.966 35.3009L124.112 37.4583C125.722 37.9448 127.226 38.797 128.717 39.5081C130.921 39.1498 133.065 38.6522 135.175 38.1732C136.441 37.8854 137.341 37.321 138.197 36.3926C139.311 35.1876 140.648 34.1831 142.308 33.9678C143.402 33.8266 145.071 34.3632 145.206 35.5329C144.75 36.6507 143.953 37.8148 143.76 39.1108C143.521 40.715 146.994 39.0551 147.706 38.6244C149.432 37.5772 150.905 36.348 152.28 34.8441C152.409 34.7049 152.752 34.5638 152.925 34.5415C154.373 34.3669 152.267 37.5456 152.019 37.878C152.208 37.8835 152.544 37.735 152.737 37.566C153.938 36.5096 155.067 35.6295 156.397 34.8515C156.701 35.299 156.744 35.3529 156.835 34.8887C157.357 34.8441 157.828 35.2786 157.949 35.8987C158.094 36.6488 157.685 37.4008 157.407 38.1546C158.844 37.0703 161.525 34.2852 162.997 35.4011C163.283 35.6184 163.552 36.2998 163.476 36.6711L163.109 38.4517C163.021 38.8769 163.14 39.4042 163.319 39.7217C164.583 39.1869 165.554 38.7469 166.557 37.9968L170.24 35.2322C171.501 34.2871 172.639 34.9258 173.666 35.6276C175.148 36.6414 177.197 35.8597 178.495 34.937C178.649 34.8274 179.295 34.8664 179.468 34.9407C179.676 35.0298 179.574 35.5162 179.401 35.7632C178.809 36.608 177.184 39.1554 177.832 39.9872C178.41 40.728 182.443 38.8416 182.842 37.7257L184.134 34.1089C185.384 30.6108 192.565 21.7897 197.092 20.3953C197.842 20.165 198.915 20.4881 198.999 21.3719C199.105 22.4878 198.657 23.5702 198 24.5339C194.37 29.8552 189.771 34.3205 184.713 38.344C184.526 39.5991 185.66 40.5757 186.947 40.5405C188.919 40.4885 191.106 39.9835 192.636 38.7172C193.263 36.6785 194.615 34.7569 196.912 34.5285C197.473 34.4728 198.195 34.7383 198.462 35.1375C199.572 36.7955 195.577 38.8917 194.075 39.3206C194.214 40.8245 197.35 40.0057 198.479 39.458C200.404 38.5241 201.999 37.3024 203.392 35.6555C203.561 35.455 203.964 35.2823 204.175 35.3269C204.444 35.3826 204.858 35.9377 204.749 36.2051L203.533 39.1851C205.291 38.0915 207.779 35.1356 209.922 35.6536C210.247 35.7316 210.557 36.2123 210.579 36.6915C210.622 37.6143 210.087 39.6975 210.261 39.9092C210.436 40.1209 211.619 39.3392 211.619 39.3392C216.171 37.4286 216.11 34.9871 218.355 31.5503C220.197 28.73 222.259 26.2346 224.876 24.1161C225.644 23.4941 226.745 22.9482 227.72 23.3938C228.09 23.5628 228.101 24.6508 227.937 25.0407C226.146 29.3334 221.779 33.368 218.19 36.1717C217.349 36.8289 216.598 37.4602 216.169 38.5352L216.173 38.5371ZM190.941 31.205C193.328 28.7783 197.088 24.8885 198.126 21.578C196.175 20.9059 191.837 25.5253 190.564 27.1072C187.721 30.6368 186.481 32.5325 184.648 36.8605C187.023 35.1709 188.932 33.2474 190.941 31.2068V31.205ZM227.052 24.3315C224.085 24.9052 219.185 32.6699 218.056 34.8887C221.3 32.6086 225.991 27.707 227.052 24.3315ZM143.699 35.1542C143.138 34.794 142.355 34.8478 141.747 35.1653C139.816 36.1791 138.272 37.6217 137.356 39.6158C137.236 39.8795 137.267 40.4551 137.451 40.6147C138.32 41.3723 143.335 36.9366 143.699 35.1523V35.1542ZM197.43 35.5757C196.602 34.9592 194.207 37.2188 194.229 38.3551C194.782 38.266 198.167 36.1252 197.43 35.5757ZM172.628 36.97C172.639 36.6711 172.505 36.2738 172.333 36.1382C171.278 35.3176 168.703 38.6596 169.7 39.8999C170.242 40.5757 172.554 39.0403 172.628 36.9682V36.97ZM228.045 40.1376C229.991 39.2074 230.754 36.9143 230.154 36.4743C229.554 36.0343 227.059 37.1538 227.003 39.5601C226.992 40.015 227.605 40.3492 228.043 40.1394L228.045 40.1376ZM115.637 51.4672C119.124 50.8489 122.434 50.0078 125.598 48.4537C127.586 47.4771 131.016 44.8127 129.417 42.2022C129.061 41.6211 128.496 40.9489 127.774 40.728C121.899 41.8086 116.242 43.1547 110.583 45.0374C108.785 45.6353 100.716 48.7155 101.24 50.8749C101.834 53.3276 113.345 51.8738 115.637 51.4653V51.4672Z" fill="black"/>
<path d="M181.52 31.8251C181.174 32.15 180.556 32.0962 180.261 31.7378C180.06 31.4965 180.198 30.9079 180.567 30.6331C180.937 30.3583 181.427 30.453 181.674 30.7594C181.902 31.0416 181.848 31.5132 181.518 31.8233L181.52 31.8251Z" fill="black"/>
<path d="M87.825 34.8776C88.4024 35.0967 88.9112 35.8691 88.6865 36.3481C88.3003 37.1725 87.8789 37.9597 87.8974 38.7692C87.9587 41.5172 96.9024 37.9189 98.2058 37.3916C98.4231 37.3043 98.9819 37.4696 99.123 37.581C99.3013 37.7202 98.9244 38.2382 98.6849 38.3459C96.0019 39.5453 93.241 40.3047 90.3204 40.793C89.3624 40.9527 88.4433 40.8822 87.5317 40.4588C86.9784 40.2008 86.737 39.356 86.6646 38.7433C85.6137 40.0819 84.1265 41.5617 82.5278 41.7158C81.347 41.8309 80.4688 40.8525 80.6267 39.7979L79.676 40.249C79.65 41.0586 77.5334 41.7771 76.5698 41.8198C75.2868 41.8755 74.2582 40.897 74.4123 39.5231C74.5404 38.3701 75.1531 37.243 75.5709 36.324C73.1293 36.8216 71.1501 34.4803 70.023 36.3463C69.1745 37.7499 68.4987 39.096 67.7412 40.5721C67.5908 40.8673 67.0876 41.196 66.8258 41.1291C65.4593 40.7763 67.1674 38.2809 67.6279 37.5401L68.5247 36.103L65.1121 36.842C64.8503 38.8342 63.6991 40.6092 61.8758 41.4633C61.057 41.8458 60.1473 41.5023 59.6552 40.949C59.0852 40.3085 59.2338 39.4247 59.3693 38.6114C57.559 39.9761 54.683 42.7166 52.7929 41.7845C51.2295 41.014 51.7772 38.474 52.1857 36.8736C50.0988 39.0348 47.6628 40.7281 44.9075 41.9256C43.7545 42.4269 42.4826 42.4771 41.4132 41.8904C40.7095 41.506 40.5479 40.806 40.6445 40.0429C39.5119 40.9973 38.448 41.8402 37.1594 42.1429C36.1178 42.388 35.1709 41.8774 34.9258 40.7912C34.7959 40.2175 34.9667 39.2353 35.0855 38.7321C35.1004 38.6708 34.9017 38.3775 34.885 38.4369C34.4264 40.0132 28.9528 42.2654 27.2113 42.7147L19.7083 58.2293C19.5487 58.5617 19.0455 58.7362 18.7874 58.6954C18.5293 58.6545 17.859 58.2423 17.9463 57.9824C18.0874 57.5553 18.507 57.0856 18.7039 56.7254C21.112 52.3064 23.1377 47.8039 25.2654 43.1566C20.8948 43.7396 16.2474 44.0404 11.7022 42.4808C8.95432 41.5989 6.59445 40.0262 4.99212 37.5865C1.99169 33.0135 3.84096 26.8455 6.65758 22.59C8.39174 19.9702 10.5511 17.8368 13.3733 16.4183C17.0013 14.5932 21.3738 15.0666 24.2851 17.9315C29.4541 23.0189 29.5953 32.4973 27.5863 39.0515C28.2603 38.2605 28.4738 37.3025 28.9027 36.3165C31.2347 30.9451 34.0903 25.9358 37.6366 21.2606C41.4169 16.2791 47.3546 10.4806 53.7342 9.47239C55.3477 9.21802 58.6099 9.27001 58.6155 11.5203C58.6155 11.7636 58.0956 12.1108 57.8802 12.0829C57.0763 11.9752 57.6017 10.4917 55.7822 10.4732C47.7742 10.3877 40.2063 19.0344 36.2812 25.2525C34.8293 27.5529 33.5426 29.7995 32.3524 32.2597L27.9744 41.3222C29.7995 40.6705 31.2904 39.9315 32.7869 39.0348C36.699 36.6935 36.9701 33.6113 38.0098 34.2203C38.2475 34.3596 38.4666 34.9742 38.3422 35.2062L36.2589 39.1239C35.9396 39.7236 35.9117 40.7949 36.504 41.2201C41.8179 39.796 40.6686 36.5505 44.1648 34.7625C45.2807 34.1925 46.7697 34.3744 47.1615 35.6203C47.2543 35.9155 46.9684 36.5189 46.7456 36.6248C45.9361 37.011 45.8544 35.8022 45.3883 35.6574C44.395 35.3492 40.7614 39.6642 42.0333 40.9416C43.3404 42.2543 47.8188 39.2984 49.0702 38.2364L50.6911 36.8624C52.5459 35.2898 53.9552 33.3941 54.787 31.2979L45.5443 31.4631C45.3624 31.4668 44.9576 31.257 44.8258 31.1345C44.6679 30.986 45.1711 30.3937 45.4608 30.3881L55.4795 30.1634L59.5067 23.0931C59.7016 22.7515 60.3274 22.5881 60.5761 22.7367C60.9939 22.9836 61.0645 23.3939 60.8324 23.795L57.1394 30.2043L65.4444 29.9425C66.2447 29.9165 70.8641 29.4579 70.606 30.377C70.5578 30.5478 70.2031 30.8541 70.023 30.8597L56.6102 31.3332L54.1408 36.0306C53.7342 36.8049 52.3398 40.3214 53.3202 40.7986C54.4843 41.3649 56.9537 39.2706 57.8988 38.5223C60.5539 36.4242 60.9048 34.4041 62.8172 34.1906C64.5699 33.9938 64.4362 36.3054 65.9847 35.8561L67.8953 35.3028C68.6621 35.08 69.3472 34.8442 70.1289 34.575C72.2251 33.8508 73.8868 36.3964 76.4082 34.9055C76.6292 34.7755 77.1973 34.8609 77.3162 35.0484C77.435 35.2359 77.4406 35.7744 77.3292 35.9675C76.8854 36.7473 74.3306 41.0753 76.7276 40.7615C78.07 40.5851 79.1543 39.9074 80.1142 39.0162C81.878 37.3767 81.126 37.6627 82.7729 36.09C84.1023 34.82 85.9869 34.1813 87.8231 34.8795L87.825 34.8776ZM25.5439 41.8792C27.6142 34.8405 28.9937 23.7151 22.887 18.4347C20.4974 16.3682 17.3466 15.9207 14.4557 17.2631C9.71742 19.4652 6.35308 24.6658 5.16108 29.7067C4.74146 31.4836 4.92342 33.1267 5.16479 34.898C5.21863 35.2954 5.33375 35.4439 5.52871 35.8097C6.91381 38.3942 9.01744 40.3994 11.8916 41.2665C16.7562 42.7333 20.5364 42.7296 25.5439 41.8811V41.8792ZM63.8736 36.7863C63.9479 36.116 63.6601 35.728 62.9713 35.3529C61.5973 36.1327 59.8316 38.8547 60.4852 40.5127C60.7692 41.2312 63.5933 39.3337 63.8718 36.7863H63.8736ZM87.2309 35.8394C84.7689 34.3763 80.8271 39.7124 82.1027 40.5814C83.3782 41.4503 86.8725 37.3396 87.2309 35.8394Z" fill="black"/>
</g>
</g>
</g>
<defs>
<clipPath id="clip0_51_1722">
<rect width="241" height="64" fill="white"/>
</clipPath>
<clipPath id="clip1_51_1722">
<rect width="98.0338" height="52.3589" fill="white" transform="translate(1 8)"/>
</clipPath>
<clipPath id="clip2_51_1722">
<rect width="142.78" height="52.3589" fill="white" transform="translate(99.2197 8)"/>
</clipPath>
</defs>
</svg>
