<svg preserveAspectRatio="none" width="100%" height="100%" overflow="visible" style="display: block;" viewBox="0 0 35.1442 35.8333" fill="none" xmlns="http://www.w3.org/2000/svg">
<g id="Group 1171275546">
<g id="Vector">
<path fill-rule="evenodd" clip-rule="evenodd" d="M25.5964 34.2351C26.5087 32.844 26.8948 30.9859 26.5493 29.6485C26.2476 28.4806 25.4525 27.3192 24.9179 25.7637C24.0401 23.21 24.1979 19.8021 24.823 19.174C25.715 18.2778 26.1466 20.2011 25.919 22.2273C25.7547 23.6892 25.7349 24.2209 25.8076 25.2188C25.9245 26.8255 26.3713 27.666 27.4501 28.3087C28.7304 29.0712 30.1209 28.9117 31.6064 27.8318C32.2645 27.3534 33.5836 26.0884 33.9579 25.5766C34.3066 25.0999 34.8397 24.339 35.0911 23.9786C35.1728 23.8615 35.1589 23.703 35.0588 23.6015L33.0747 21.5907L31.5114 20.0355C31.3863 19.911 31.1812 19.9238 31.0721 20.0627C30.8715 20.3181 30.5882 20.676 30.5359 20.7276C30.3146 20.946 29.9751 21.1055 29.6104 21.0573C28.8637 20.9588 28.7664 20.3308 28.9422 19.2114C29.0459 18.5514 29.0175 18.0063 28.856 17.5577C28.7247 17.1929 28.594 17.0432 28.3439 16.7793C27.4954 15.8843 25.8047 16.0334 25.2394 16.245C24.0205 16.7012 22.1163 18.9653 22.1395 21.536C22.1465 22.313 23.0983 26.0748 22.4202 27.9083C22.1243 28.7084 21.7247 29.4235 21.3213 29.7944C21.0236 30.0681 19.9432 30.7169 19.3974 31.0382C19.2337 31.1345 19.2008 31.3585 19.33 31.498L21.3319 33.659L23.4326 35.7483C23.5265 35.8417 23.6704 35.8609 23.7834 35.7922C24.0577 35.6254 24.5634 35.3035 24.8809 35.0145C25.1863 34.7365 25.5163 34.3572 25.5964 34.2351Z" fill="var(--fill-0, #DA2777)"/>
<path fill-rule="evenodd" clip-rule="evenodd" d="M9.54783 1.59823C8.63548 2.9893 8.24943 4.84743 8.59492 6.18483C8.89661 7.35272 9.6917 8.51415 10.2263 10.0696C11.1042 12.6234 10.9463 16.0313 10.3212 16.6593C9.42922 17.5555 8.99758 15.6322 9.22528 13.606C9.38953 12.1441 9.40932 11.6124 9.33667 10.6145C9.21975 9.00781 8.7729 8.16731 7.69409 7.52467C6.41383 6.76211 5.02337 6.92163 3.53784 8.00152C2.87972 8.47991 1.56059 9.74497 1.1863 10.2567C0.837606 10.7334 0.304561 11.4944 0.0531031 11.8548C-0.0285656 11.9718 -0.0146912 12.1304 0.0854672 12.2319L2.06956 14.2426L3.63279 15.7978C3.75794 15.9224 3.96306 15.9095 4.07217 15.7706C4.27274 15.5152 4.55601 15.1573 4.60834 15.1057C4.8296 14.8873 5.16911 14.7279 5.5338 14.776C6.28051 14.8745 6.37784 15.5025 6.20202 16.6219C6.09832 17.282 6.12673 17.827 6.2882 18.2756C6.41949 18.6404 6.55022 18.7901 6.80035 19.054C7.64883 19.949 9.33948 19.8 9.90487 19.5883C11.1238 19.1321 13.028 16.868 13.0047 14.2974C12.9977 13.5203 12.046 9.7585 12.724 7.92504C13.0199 7.12498 13.4195 6.40986 13.8229 6.03896C14.1206 5.76525 15.201 5.1164 15.7469 4.79513C15.9105 4.69881 15.9434 4.4748 15.8142 4.33531L13.8123 2.17437L11.7116 0.0850016C11.6177 -0.00838689 11.4738 -0.0275736 11.3608 0.0411589C11.0866 0.207931 10.5808 0.52985 10.2633 0.818868C9.95789 1.09686 9.62792 1.47613 9.54783 1.59823Z" fill="var(--fill-0, #DA2777)"/>
</g>
<g id="Vector_2">
<path fill-rule="evenodd" clip-rule="evenodd" d="M32.8159 10.4289C31.4317 9.51201 29.5829 9.12403 28.2521 9.47124C27.09 9.77445 25.9344 10.5735 24.3867 11.1108C21.8456 11.993 18.4547 11.8344 17.8297 11.2062C16.938 10.3097 18.8517 9.87592 20.8679 10.1048C22.3225 10.2698 22.8515 10.2897 23.8445 10.2167C25.4432 10.0992 26.2795 9.65011 26.9189 8.56591C27.6777 7.27924 27.519 5.88183 26.4445 4.38887C25.9684 3.72746 24.7097 2.40173 24.2005 2.02557C23.7262 1.67513 22.969 1.13942 22.6104 0.886702C22.4939 0.804625 22.3362 0.818569 22.2352 0.919228L20.2344 2.91324L18.6869 4.48429C18.563 4.61007 18.5758 4.81622 18.7141 4.92587C18.9682 5.12745 19.3243 5.41213 19.3756 5.46472C19.5929 5.68709 19.7516 6.0283 19.7037 6.39481C19.6057 7.14526 18.9808 7.24308 17.867 7.06637C17.2102 6.96215 16.6679 6.99071 16.2215 7.15299C15.8585 7.28493 15.7095 7.41632 15.447 7.6677C14.5564 8.52043 14.7047 10.2195 14.9153 10.7878C15.3693 12.0127 17.6221 13.9265 20.1799 13.9031C20.9532 13.896 24.6962 12.9395 26.5206 13.621C27.3166 13.9184 28.0282 14.32 28.3973 14.7254C28.6696 15.0246 29.3152 16.1104 29.6349 16.6589C29.7307 16.8234 29.9536 16.8565 30.0924 16.7266L32.2426 14.7147L34.3216 12.6035C34.4145 12.5091 34.4336 12.3645 34.3652 12.2509C34.1993 11.9753 33.8789 11.4671 33.5914 11.148C33.3147 10.841 32.9374 10.5094 32.8159 10.4289Z" fill="var(--fill-0, black)"/>
<path fill-rule="evenodd" clip-rule="evenodd" d="M1.59028 25.3027C2.97442 26.2196 4.8233 26.6076 6.15405 26.2604C7.31612 25.9571 8.47178 25.1581 10.0195 24.6208C12.5606 23.7386 15.9515 23.8972 16.5764 24.5254C17.4682 25.4219 15.5544 25.8557 13.5383 25.6268C12.0837 25.4618 11.5546 25.4419 10.5617 25.5149C8.96298 25.6324 8.12666 26.0815 7.48722 27.1657C6.72845 28.4523 6.88718 29.8498 7.9617 31.3427C8.4377 32.0041 9.69647 33.3299 10.2057 33.706C10.68 34.0565 11.4372 34.5922 11.7958 34.8449C11.9122 34.927 12.07 34.913 12.171 34.8124L14.1717 32.8184L15.7192 31.2473C15.8431 31.1215 15.8303 30.9154 15.6921 30.8057C15.438 30.6041 15.0819 30.3195 15.0305 30.2669C14.8132 30.0445 14.6546 29.7033 14.7024 29.3368C14.8005 28.5863 15.4254 28.4885 16.5392 28.6652C17.1959 28.7694 17.7383 28.7409 18.1847 28.5786C18.5476 28.4467 18.6966 28.3153 18.9592 28.0639C19.8497 27.2112 19.7014 25.5121 19.4908 24.9438C19.0369 23.7189 16.7841 21.8051 14.2262 21.8285C13.453 21.8356 9.70993 22.792 7.8856 22.1106C7.08952 21.8132 6.37796 21.4116 6.0089 21.0062C5.73656 20.707 5.09094 19.6212 4.77127 19.0726C4.67542 18.9082 4.45253 18.8751 4.31373 19.0049L2.16355 21.0169L0.0845786 23.1281C-0.00834515 23.2224 -0.0274364 23.3671 0.040954 23.4806C0.206897 23.7563 0.527213 24.2645 0.814792 24.5836C1.09141 24.8906 1.46879 25.2222 1.59028 25.3027Z" fill="var(--fill-0, black)"/>
</g>
</g>
</svg>
