<svg preserveAspectRatio="none" width="100%" height="100%" overflow="visible" style="display: block;" viewBox="0 0 22.8571 22.8571" fill="none" xmlns="http://www.w3.org/2000/svg">
<g id="lucide/moon">
<path id="Vector" d="M19.9857 11.8914C19.8964 13.5449 19.3301 15.1371 18.3553 16.4756C17.3804 17.8141 16.0387 18.8416 14.4924 19.4338C12.946 20.0261 11.2612 20.1577 9.64165 19.8129C8.02208 19.468 6.53706 18.6615 5.36612 17.4906C4.19517 16.3198 3.38843 14.8349 3.04341 13.2153C2.69839 11.5958 2.82987 9.911 3.42194 8.36459C4.01402 6.81818 5.04135 5.47637 6.37975 4.50137C7.71815 3.52637 9.31031 2.95991 10.9638 2.87048C11.3495 2.84953 11.5514 3.30857 11.3466 3.63524C10.6618 4.73101 10.3685 6.02655 10.5147 7.31043C10.6609 8.59432 11.238 9.79074 12.1517 10.7045C13.0654 11.6182 14.2618 12.1952 15.5457 12.3414C16.8296 12.4876 18.1252 12.1944 19.2209 11.5095C19.5485 11.3048 20.0066 11.5057 19.9857 11.8914Z" stroke="var(--stroke-0, white)" stroke-width="0.952381" stroke-linecap="round" stroke-linejoin="round"/>
</g>
</svg>
