<svg width="740" height="48" viewBox="0 0 740 48" fill="none" xmlns="http://www.w3.org/2000/svg">
<g clip-path="url(#clip0_73_1105)">
<path opacity="0.4" d="M29.0889 23.4776C29.0527 22.9685 28.8222 22.4936 28.4463 22.1536C28.0704 21.8135 27.5785 21.6349 27.0749 21.6557C24.7654 21.6557 24.3895 23.6238 24.3895 25.3675C24.3895 26.9957 25.0944 28.6646 26.8432 28.6646C28.2799 28.6646 29.0083 27.842 29.1929 26.5096H33.221C32.8551 29.8781 30.2301 31.819 26.8734 31.819C23.0804 31.819 20.2607 29.2255 20.2607 25.3607C20.2607 21.36 22.8152 18.4979 26.8734 18.4979C30.012 18.4979 32.8081 20.1465 33.0968 23.4708L29.0889 23.4776Z" fill="black"/>
<path opacity="0.4" d="M63.3164 18.8687H67.3243V20.6464H67.3747C68.1266 19.3242 69.3887 18.505 71.1778 18.505C75.3837 18.505 75.8772 21.5642 75.8772 23.3793V31.4556H71.7518V25.3678C71.7518 23.6478 71.829 21.8973 69.6841 21.8973C68.2407 21.8973 67.4485 23.0836 67.4485 24.9225V31.4556H63.3164V18.8687Z" fill="black"/>
<path opacity="0.4" d="M77.2612 22.7505C77.2626 22.062 77.4461 21.3864 77.7926 20.794C78.1391 20.2017 78.636 19.7141 79.2316 19.382C80.3494 18.7497 81.8095 18.505 83.2428 18.505C86.2337 18.505 89.1305 19.161 89.1305 22.7233V28.2298C89.1305 29.2971 89.1305 30.463 89.6172 31.4556H85.4549C85.3272 31.0715 85.2461 30.6732 85.2132 30.2693C84.1458 31.3842 82.5648 31.8193 81.0543 31.8193C78.6475 31.8193 76.751 30.6092 76.751 28.0123C76.751 23.913 81.2255 24.2291 84.0954 23.6478C84.8004 23.5017 85.1897 23.2603 85.1897 22.4819C85.1897 21.537 84.0484 21.1733 83.1958 21.1733C82.0512 21.1733 81.3228 21.6832 81.1281 22.7505H77.2612ZM82.6118 29.2733C84.5822 29.2733 85.2367 28.1584 85.1427 25.5615C84.5587 25.9286 83.4879 26 82.5883 26.2414C81.6887 26.4827 80.8864 26.8498 80.8864 27.8423C80.8864 28.8349 81.6887 29.2733 82.6118 29.2733Z" fill="black"/>
<path opacity="0.4" d="M90.4756 16.0707H94.6077V31.4618H90.4756V16.0707Z" fill="black"/>
<path opacity="0.4" d="M108.589 31.455H104.645V30.007H104.598C104.219 30.5845 103.701 31.0545 103.092 31.3727C102.484 31.6909 101.805 31.8467 101.121 31.8255C97.1598 31.8255 95.4814 28.4264 95.4814 24.8879C95.4814 21.6146 97.2303 18.5112 100.805 18.5112C101.498 18.4783 102.189 18.6182 102.817 18.9187C103.444 19.2191 103.989 19.671 104.404 20.2346H104.454V16.0707H108.589V31.455ZM99.6135 25.0273C99.6135 26.7507 100.245 28.6643 102.144 28.6643C104.159 28.6643 104.598 26.7506 104.598 25.1497C104.598 23.3312 103.944 21.6554 102.144 21.6554C100.245 21.6554 99.6135 23.4297 99.6135 25.0273Z" fill="black"/>
<path opacity="0.4" d="M111.381 20.2283H109.444V16.0645H113.311L111.381 20.2283Z" fill="black"/>
<path opacity="0.4" d="M40.7188 16.0707H34.0859V31.4618H40.7188C45.4182 31.4618 48.2814 28.7425 48.2814 23.7017C48.2848 18.9293 45.4551 16.0707 40.7188 16.0707ZM40.3428 27.8961H38.4866V19.6329H40.3428C42.7462 19.6329 43.8237 21.2339 43.8237 23.6847C43.8271 26.3801 42.9577 27.8893 40.3462 27.8893L40.3428 27.8961Z" fill="black"/>
<path opacity="0.4" d="M12.3841 31.456L14.0356 25.2867C14.2236 24.5661 14.4082 23.7231 14.4821 23.2948H14.5358C14.576 23.6347 14.7036 24.5491 14.8714 25.3343L16.0463 31.4526H20.5778L17.389 16.0377H12.562L10.6286 23.7809C10.4641 24.3825 10.266 25.3512 10.1452 25.8611H10.0982C9.97737 25.3512 9.77933 24.3825 9.61821 23.7809L7.68474 16.0377H2.85781L-0.331055 31.4526H4.22398L5.39547 25.3343C5.54988 24.5491 5.67408 23.6347 5.73114 23.2948H5.77478C5.84863 23.7231 6.03325 24.5661 6.21787 25.2867L7.87272 31.456H12.3841Z" fill="black"/>
<path opacity="0.4" d="M55.788 18.505C51.713 18.505 49.1484 21.3908 49.1484 25.174C49.1484 28.9572 51.713 31.8431 55.788 31.8431C59.863 31.8431 62.4276 28.9572 62.4276 25.174C62.4276 21.3908 59.8496 18.505 55.788 18.505ZM55.788 28.7023C53.9989 28.7023 53.2839 27.1999 53.2839 25.1842C53.2839 23.1686 53.9989 21.6662 55.788 21.6662C57.5771 21.6662 58.2921 23.1686 58.2921 25.1842C58.2921 27.1999 57.5738 28.6921 55.788 28.6921V28.7023Z" fill="black"/>
<path opacity="0.4" d="M116.271 27.3087C116.264 27.5805 116.321 27.8502 116.438 28.0951C116.555 28.3399 116.728 28.5528 116.943 28.7159C117.369 29.0168 117.88 29.1695 118.4 29.151C119.192 29.151 120.32 28.8111 120.32 27.8185C120.32 26.826 119.047 26.6526 118.329 26.4827C115.761 25.8267 112.438 25.7553 112.438 22.3596C112.438 19.3276 115.795 18.505 118.232 18.505C120.971 18.505 123.824 19.3038 123.968 22.5839H120.148C120.165 22.3709 120.125 22.1573 120.032 21.9654C119.94 21.7734 119.798 21.6102 119.621 21.4928C119.245 21.268 118.812 21.1593 118.376 21.1801C117.705 21.1801 116.624 21.2515 116.624 22.125C116.624 23.3147 119.47 23.5323 121.323 23.9436C123.844 24.4534 124.492 26.2957 124.492 27.3427C124.492 30.7112 121.216 31.8295 118.41 31.8295C115.456 31.8295 112.431 30.8369 112.311 27.3189L116.271 27.3087Z" fill="black"/>
<path opacity="0.4" d="M123.534 16.0707C123.728 16.0707 123.917 16.1289 124.078 16.2379C124.239 16.3469 124.364 16.5018 124.438 16.6829C124.511 16.8641 124.53 17.0633 124.492 17.2554C124.454 17.4474 124.36 17.6236 124.223 17.7617C124.085 17.8998 123.911 17.9934 123.721 18.0308C123.531 18.0682 123.334 18.0477 123.156 17.9717C122.978 17.8958 122.826 17.768 122.719 17.6044C122.612 17.4409 122.556 17.249 122.558 17.0531C122.557 16.9234 122.582 16.7949 122.631 16.675C122.68 16.5552 122.752 16.4464 122.843 16.355C122.934 16.2636 123.042 16.1914 123.161 16.1426C123.279 16.0938 123.406 16.0694 123.534 16.0707ZM123.534 17.8994C123.7 17.9062 123.864 17.8627 124.005 17.7744C124.147 17.6862 124.258 17.5572 124.327 17.4041C124.395 17.251 124.417 17.0807 124.389 16.9151C124.361 16.7495 124.284 16.5961 124.17 16.4747C124.055 16.3533 123.907 16.2693 123.745 16.2335C123.583 16.1977 123.414 16.2118 123.26 16.274C123.106 16.3362 122.974 16.4435 122.88 16.5823C122.787 16.7212 122.736 16.8851 122.736 17.0531C122.732 17.1617 122.75 17.27 122.788 17.3715C122.827 17.473 122.885 17.5657 122.96 17.644C123.034 17.7222 123.123 17.7846 123.222 17.8273C123.321 17.87 123.427 17.8922 123.534 17.8926V17.8994ZM123.155 16.4786H123.598C123.863 16.4786 123.994 16.5874 123.994 16.8185C123.997 16.8594 123.991 16.9002 123.977 16.9385C123.962 16.9769 123.941 17.0118 123.913 17.0412C123.885 17.0706 123.851 17.0938 123.813 17.1093C123.776 17.1248 123.736 17.1323 123.696 17.1312L124.031 17.6411H123.843L123.534 17.1448H123.346V17.6411H123.169L123.155 16.4786ZM123.333 16.9919H123.518C123.672 16.9919 123.816 16.9919 123.816 16.8015C123.816 16.6112 123.689 16.6248 123.568 16.6248H123.333V16.9919Z" fill="black"/>
</g>
<path opacity="0.4" d="M166.885 29.1078C168.61 29.1078 169.94 28.661 170.871 27.7673C171.803 26.8737 172.269 25.6442 172.269 24.078C172.269 23.2953 172.161 22.5842 171.945 21.946C171.73 21.3077 171.402 20.7631 170.962 20.3116C170.522 19.861 169.965 19.512 169.293 19.2651C168.619 19.0186 167.817 18.8949 166.885 18.8949H164.504V29.1078H166.885ZM160.596 15.4987H167.119C168.447 15.4987 169.676 15.6693 170.806 16.0094C171.936 16.3504 172.912 16.8696 173.731 17.5672C174.551 18.2651 175.189 19.1588 175.647 20.2476C176.104 21.3374 176.332 22.6228 176.332 24.1034C176.332 25.5163 176.1 26.7458 175.634 27.7927C175.168 28.8397 174.525 29.7168 173.705 30.4228C172.886 31.1293 171.911 31.6574 170.781 32.006C169.65 32.3549 168.421 32.529 167.092 32.529H160.596V15.4987Z" fill="black"/>
<path opacity="0.4" d="M186.483 25.2774C186.483 25.022 186.431 24.7628 186.327 24.4985C186.224 24.2351 186.069 23.9924 185.862 23.7709C185.655 23.5502 185.396 23.3668 185.085 23.222C184.775 23.0776 184.403 23.0051 183.972 23.0051C183.541 23.0051 183.161 23.0776 182.834 23.222C182.506 23.3668 182.234 23.5502 182.018 23.7709C181.802 23.9924 181.638 24.2351 181.526 24.4985C181.414 24.7628 181.358 25.022 181.358 25.2774H186.483ZM189.744 31.2266C189.606 31.3122 189.399 31.4524 189.123 31.648C188.847 31.8437 188.489 32.0351 188.049 32.2223C187.609 32.4099 187.086 32.5755 186.483 32.7204C185.879 32.8648 185.189 32.9372 184.412 32.9372C183.377 32.9372 182.445 32.7797 181.617 32.465C180.789 32.1503 180.085 31.7116 179.508 31.15C178.929 30.5884 178.489 29.9116 178.187 29.12C177.885 28.3289 177.734 27.4564 177.734 26.503C177.734 25.6695 177.877 24.8648 178.162 24.0902C178.446 23.3156 178.856 22.6392 179.391 22.0603C179.926 21.4817 180.582 21.018 181.358 20.669C182.135 20.32 183.015 20.1455 183.998 20.1455C184.981 20.1455 185.844 20.3158 186.586 20.6559C187.328 20.9968 187.954 21.469 188.463 22.0734C188.972 22.6773 189.356 23.4007 189.615 24.2435C189.874 25.0859 190.003 26.0096 190.003 27.0138V27.6267H181.358C181.375 28.2734 181.664 28.8392 182.225 29.3246C182.785 29.8095 183.558 30.0522 184.542 30.0522C185.508 30.0522 186.293 29.9116 186.897 29.6308C187.501 29.35 187.941 29.1073 188.217 28.9032L189.744 31.2266Z" fill="black"/>
<path opacity="0.4" d="M190.23 20.5535H194.372L197.245 28.4175L200.014 20.5535H204.078L198.875 32.5282H195.355L190.23 20.5535Z" fill="black"/>
<path opacity="0.4" d="M207.299 27.4471C207.522 27.6855 207.786 27.9282 208.088 28.1747C208.39 28.4216 208.726 28.6469 209.097 28.8515C209.468 29.0552 209.874 29.2212 210.314 29.3491C210.754 29.4766 211.224 29.541 211.724 29.541C212.018 29.541 212.311 29.4982 212.604 29.4131C212.898 29.3279 213.165 29.2047 213.407 29.0425C213.648 28.8811 213.843 28.6855 213.989 28.4555C214.136 28.2255 214.209 27.9663 214.209 27.677C214.209 27.0473 213.899 26.5577 213.278 26.2083C212.656 25.8601 211.673 25.5154 210.327 25.1744C209.671 25.0211 209.063 24.8005 208.502 24.5108C207.941 24.2215 207.458 23.8721 207.053 23.4638C206.647 23.0555 206.332 22.5875 206.108 22.0598C205.884 21.5321 205.772 20.9447 205.772 20.2975C205.772 19.5831 205.901 18.9105 206.16 18.2807C206.419 17.6514 206.811 17.0932 207.337 16.6082C207.863 16.1229 208.519 15.74 209.305 15.4592C210.089 15.1784 211.017 15.0382 212.087 15.0382C212.967 15.0382 213.743 15.1276 214.416 15.3059C215.089 15.4846 215.663 15.6976 216.137 15.9446C216.612 16.1915 217 16.4464 217.302 16.7103C217.604 16.9741 217.833 17.1829 217.988 17.3363L215.736 19.7872C215.546 19.6339 215.326 19.4679 215.077 19.2891C214.826 19.1104 214.546 18.9444 214.235 18.7915C213.925 18.6382 213.584 18.5103 213.213 18.4082C212.841 18.3061 212.449 18.2549 212.035 18.2549C211.759 18.2549 211.487 18.2977 211.22 18.3828C210.952 18.4683 210.711 18.5831 210.495 18.7275C210.279 18.8724 210.107 19.0426 209.977 19.2383C209.848 19.434 209.783 19.6428 209.783 19.8639C209.783 20.4424 210.094 20.9104 210.715 21.2678C211.336 21.6253 212.191 21.9235 213.278 22.1615C213.916 22.3148 214.542 22.5236 215.154 22.787C215.766 23.0513 216.314 23.3961 216.798 23.8213C217.281 24.2469 217.668 24.7704 217.963 25.3917C218.256 26.013 218.402 26.7665 218.402 27.6512C218.402 28.4174 218.23 29.1238 217.885 29.7705C217.539 30.4177 217.07 30.9793 216.474 31.4553C215.879 31.9322 215.18 32.3028 214.378 32.5662C213.575 32.8297 212.708 32.9618 211.776 32.9618C210.913 32.9618 210.129 32.8809 209.421 32.7195C208.713 32.5573 208.075 32.3451 207.506 32.0813C206.936 31.8174 206.423 31.5155 205.966 31.1749C205.508 30.8344 205.116 30.4854 204.788 30.1276L207.299 27.4471Z" fill="black"/>
<path opacity="0.4" d="M220.438 15.498H224.166V24.3324L227.867 20.5537H232.086L227.738 24.971L232.681 32.5288H228.359L225.253 27.4732L224.166 28.571V32.5288H220.438V15.498Z" fill="black"/>
<path opacity="0.4" d="M234.342 20.5538H238.069V32.5286H234.342V20.5538Z" fill="black"/>
<path opacity="0.4" d="M241.133 18.1714H244.86V32.5276H241.133V18.1714Z" fill="black"/>
<path opacity="0.4" d="M247.82 15.4574H251.548V32.5293H247.82V15.4574Z" fill="black"/>
<path opacity="0.4" d="M262.383 25.2768C262.383 25.0214 262.331 24.7622 262.228 24.4979C262.124 24.2345 261.969 23.9918 261.762 23.7703C261.555 23.5496 261.296 23.3662 260.985 23.2214C260.675 23.077 260.304 23.0045 259.873 23.0045C259.441 23.0045 259.061 23.077 258.734 23.2214C258.405 23.3662 258.134 23.5496 257.918 23.7703C257.702 23.9918 257.539 24.2345 257.427 24.4979C257.314 24.7622 257.258 25.0214 257.258 25.2768H262.383ZM265.644 31.226C265.506 31.3116 265.299 31.4517 265.023 31.6474C264.747 31.8431 264.389 32.0345 263.949 32.2217C263.509 32.4093 262.987 32.5749 262.383 32.7198C261.779 32.8642 261.089 32.9366 260.313 32.9366C259.277 32.9366 258.345 32.7791 257.517 32.4644C256.689 32.1497 255.986 31.7109 255.407 31.1493C254.829 30.5878 254.39 29.911 254.087 29.1194C253.785 28.3282 253.635 27.4558 253.635 26.5024C253.635 25.6689 253.777 24.8642 254.062 24.0896C254.347 23.315 254.756 22.6386 255.291 22.0597C255.826 21.4811 256.482 21.0174 257.258 20.6684C258.035 20.3194 258.915 20.1449 259.898 20.1449C260.882 20.1449 261.744 20.3152 262.486 20.6552C263.228 20.9962 263.854 21.4684 264.363 22.0728C264.872 22.6767 265.256 23.4001 265.515 24.2429C265.774 25.0853 265.903 26.009 265.903 27.0132V27.626H257.258C257.275 28.2728 257.564 28.8386 258.126 29.324C258.686 29.8089 259.458 30.0516 260.442 30.0516C261.408 30.0516 262.193 29.911 262.798 29.6302C263.401 29.3494 263.841 29.1067 264.117 28.9025L265.644 31.226Z" fill="black"/>
<path opacity="0.4" d="M267.811 20.5533H271.383L271.512 22.0598C271.823 21.6515 272.25 21.2601 272.793 20.8853C273.337 20.5109 274.04 20.3237 274.903 20.3237C275.23 20.3237 275.511 20.3407 275.744 20.3746C275.977 20.4089 276.205 20.4686 276.43 20.5533L275.835 23.7962C275.455 23.6772 275.006 23.6175 274.489 23.6175C273.609 23.6175 272.897 23.8771 272.353 24.3959C271.81 24.9156 271.538 25.6513 271.538 26.605V32.528H267.811V20.5533Z" fill="black"/>
<path opacity="0.4" d="M234.318 15.512H238.085V18.8057H234.318V15.512Z" fill="black"/>
<g clip-path="url(#clip1_73_1105)">
<path opacity="0.4" d="M343.251 13.6153L342.913 14.9699C342.913 14.9699 341.872 14.8383 340.41 16.0643L333.98 21.2405L331.724 23.0615C331.724 23.0615 332.797 24.7391 333.98 26.5691C335.288 28.5875 336.736 30.7854 337.021 31.0964C337.565 31.6944 338.46 32.6812 339.821 32.6723L339.47 34.1166C337.131 34.1166 335.386 34.1853 333.98 34.1166C329.818 33.9282 328.629 32.5825 323.873 24.8976C323.873 24.8976 322.521 29.8225 322.194 31.0515C321.867 32.2805 323.579 32.6364 323.579 32.6364L323.216 34.1016H312.432L312.458 34.0029L312.791 32.6573C313.338 32.6184 314.854 32.8008 315.797 29.1886C316.028 28.4978 315.63 29.7448 319.066 17.2275C319.554 15.3646 318.148 15.0925 317.657 14.9669L317.984 13.6272H328.299L327.966 14.9728C327.966 14.9728 326.578 15.1254 326.183 16.4231L324.367 23.1453C324.367 23.1453 332.94 16.5667 333.047 16.459C333.882 15.6786 332.859 15.0207 332.125 14.9639L332.458 13.6242H333.989L343.251 13.6153ZM377.365 13.4329C376.265 13.416 375.164 13.4719 374.071 13.6003C365.433 14.617 360.204 20.0922 360.219 25.5763C360.219 30.1724 363.923 34.601 372.487 34.5651C373.031 34.5651 373.56 34.5472 374.071 34.5143C375.949 34.4078 377.816 34.1579 379.657 33.7667L380.647 29.4906C378.991 30.0438 376.892 30.5133 375.216 30.5163C374.838 30.5173 374.461 30.4983 374.086 30.4595C370.159 30.0617 367.6 27.511 367.588 24.2517C367.588 20.8786 370.017 18.2233 374.086 17.5325C374.805 17.414 375.533 17.355 376.262 17.3561C378.887 17.3561 380.219 18.2322 381.092 19.3835H381.803L383.188 14.3299C381.299 13.7544 379.338 13.4523 377.365 13.4329ZM354.642 13.6302H344.467L344.134 14.9699C344.134 14.9699 346.165 15.1911 345.54 17.2275L340.927 34.1046L350.142 34.1225L350.487 32.6723C350.487 32.6723 348.766 32.2536 349.211 30.6508C349.247 30.5073 350.567 25.6421 350.567 25.6421H354.797C356.907 25.6421 357.6 26.7455 357.6 26.7455L358.849 21.7338H351.714L352.773 17.7957H358.968C360.109 17.7957 360.906 18.5612 360.906 19.1233H361.607L362.972 13.6362L354.642 13.6302ZM387.27 16.3215C387.404 16.1867 387.511 16.0258 387.582 15.8484C387.653 15.671 387.687 15.481 387.683 15.2898C387.681 15.0547 387.623 14.8234 387.511 14.6165C387.4 14.4097 387.24 14.2335 387.045 14.1036C386.85 13.9737 386.627 13.8941 386.394 13.8717C386.161 13.8494 385.927 13.885 385.711 13.9755C385.495 14.066 385.305 14.2086 385.157 14.3906C385.009 14.5726 384.908 14.7884 384.862 15.0191C384.817 15.2498 384.828 15.4882 384.896 15.7132C384.964 15.9383 385.086 16.1431 385.251 16.3095C385.382 16.4447 385.538 16.5512 385.712 16.6223C385.885 16.6933 386.072 16.7273 386.259 16.7222C386.447 16.7255 386.634 16.6898 386.808 16.6172C386.982 16.5447 387.139 16.4369 387.27 16.3005V16.3215ZM387.433 14.1057C387.589 14.2578 387.713 14.4406 387.796 14.6427C387.88 14.8449 387.921 15.062 387.918 15.2808C387.921 15.5005 387.88 15.7186 387.796 15.9217C387.713 16.1248 387.589 16.3086 387.433 16.462C387.28 16.6226 387.095 16.7492 386.89 16.8337C386.685 16.9181 386.465 16.9586 386.244 16.9524C386.026 16.952 385.811 16.9084 385.61 16.8242C385.409 16.7399 385.227 16.6167 385.073 16.4614C384.919 16.3061 384.798 16.122 384.715 15.9194C384.633 15.7168 384.59 15.4998 384.591 15.2808C384.593 14.9522 384.691 14.6314 384.874 14.3587C385.056 14.086 385.314 13.8736 385.616 13.7481C385.918 13.6226 386.25 13.5895 386.571 13.6532C386.891 13.7168 387.186 13.8742 387.418 14.1057H387.433ZM386.494 15.227C386.552 15.2068 386.601 15.1681 386.635 15.1168C386.669 15.0655 386.685 15.0044 386.681 14.9429C386.686 14.8916 386.678 14.8398 386.657 14.7926C386.636 14.7455 386.603 14.7045 386.562 14.6738C386.439 14.6189 386.304 14.5962 386.17 14.608H385.902V15.2689H386.199C386.3 15.2724 386.401 15.2582 386.497 15.227H386.494ZM386.972 16.0942C386.972 16.127 386.978 16.1596 386.99 16.1899V16.2168H386.693C386.69 16.2091 386.69 16.2006 386.693 16.1929C386.693 16.1929 386.693 16.1929 386.693 16.1749V16.1151V15.9686C386.709 15.8863 386.702 15.8009 386.672 15.7226C386.642 15.6442 386.59 15.576 386.523 15.526C386.41 15.4773 386.287 15.4558 386.164 15.4633H385.914V16.1899H385.602V14.3688H386.238C386.406 14.3604 386.575 14.3837 386.734 14.4376C386.827 14.4718 386.907 14.5356 386.96 14.6192C387.014 14.7028 387.039 14.8018 387.032 14.9011C387.036 14.9718 387.022 15.0424 386.99 15.1055C386.958 15.1686 386.91 15.222 386.85 15.2599C386.77 15.3069 386.681 15.3374 386.589 15.3496C386.65 15.3548 386.71 15.3733 386.764 15.4037C386.818 15.4341 386.864 15.4759 386.901 15.526C386.96 15.6091 386.994 15.7078 386.999 15.8101V15.9477C386.999 15.9895 386.999 16.0344 386.999 16.0792" fill="black"/>
</g>
<g clip-path="url(#clip2_73_1105)">
<path opacity="0.4" d="M425.638 20.3463C426.682 16.4938 431.032 15.578 435.035 15.4645C438.328 15.3707 441.997 15.8104 441.997 15.8104L440.273 22.1723C440.273 22.1723 436.602 21.7326 433.311 21.8265C429.307 21.9399 424.958 22.8557 423.914 26.7082L425.638 20.3463Z" fill="black"/>
<path opacity="0.4" d="M462.413 17.2081L458.337 32.2426H461.762L463.271 26.6747H466.246C469.529 26.6747 471.707 24.8472 472.296 22.3055C472.845 19.9333 471.472 17.2081 467.795 17.2081C466 17.2081 464.206 17.2081 462.413 17.2081ZM465.357 18.9768H466.675C468.053 18.9768 469.147 20.0901 468.883 22.0282C468.638 23.8249 466.705 24.9018 465.02 24.9018H463.752L465.357 18.9768Z" fill="black"/>
<path opacity="0.4" d="M497.834 21.8893C494.955 21.8893 492.877 24.389 492.378 26.8872C491.899 29.2889 493.264 32.4789 497.021 32.4789C499.69 32.4789 501.033 31.2928 501.033 31.2928L500.418 29.7622C500.418 29.7622 499.296 30.6836 497.731 30.6836C496.168 30.6836 495.187 29.4387 495.403 27.453H501.79C502.246 26.2837 502.496 21.8893 497.834 21.8893ZM497.822 23.5487C499.608 23.5487 499.201 25.9294 499.201 25.9294L495.623 25.921C495.623 25.921 496.217 23.5487 497.822 23.5487Z" fill="black"/>
<path opacity="0.4" d="M473.667 21.5088L468.036 42.2792H471.322L476.314 23.8628H479.726L477.455 32.2427H480.74L483.464 22.1936H476.767C477.11 20.9263 477.476 19.5777 477.775 18.477C478.326 16.445 479.225 14.9691 480.533 15.0181C481.98 15.0741 481.244 16.0319 481.045 16.7629C480.772 17.7726 481.512 18.7893 482.807 18.7893C485.622 18.7893 486.316 13.5729 481.045 13.5729C475.774 13.5729 474.423 18.7221 473.667 21.5088Z" fill="black"/>
<path opacity="0.4" d="M484.706 22.1938L484.253 23.8631H488.417L481.871 32.2429H491.115L491.568 30.5737H486.87L493.417 22.1938H484.706Z" fill="black"/>
<path opacity="0.4" d="M510.564 22.0243C508.421 22.0243 507.158 24.2565 507.158 24.2565L507.718 22.1937H504.432L501.708 32.2428H504.993C504.993 32.2428 505.784 29.3062 506.186 27.8415C506.808 25.549 508.076 24.1151 508.685 24.0562C509.389 23.9876 509.322 25.7003 510.695 25.7003C512.779 25.7003 513.229 22.0243 510.564 22.0243Z" fill="black"/>
<path opacity="0.4" d="M450.627 32.2667C438.846 31.5259 425.155 25.3936 425.639 20.3467L424.013 26.3431C423.52 31.4923 436.22 37.6049 448.902 38.6286L450.627 32.2667Z" fill="black"/>
<path opacity="0.4" d="M454.907 23.9996C453.863 27.852 449.513 28.7679 445.51 28.8813C442.218 28.9751 438.548 28.5354 438.548 28.5354L440.272 22.1735C440.272 22.1735 443.943 22.6132 447.234 22.5194C451.238 22.406 455.587 21.4901 456.631 17.6377L454.907 23.9996Z" fill="black"/>
<path opacity="0.4" d="M429.923 12.0786C441.703 12.8194 455.394 18.9516 454.911 23.9986L456.537 18.0022C457.029 12.853 444.33 6.74035 431.647 5.71667L429.923 12.0786Z" fill="black"/>
<path opacity="0.4" d="M425.638 20.3463C426.682 16.4938 431.032 15.578 435.035 15.4645C438.328 15.3707 441.997 15.8104 441.997 15.8104L440.273 22.1723C440.273 22.1723 436.602 21.7326 433.311 21.8265C429.307 21.9399 424.958 22.8557 423.914 26.7082L425.638 20.3463Z" fill="black"/>
<path opacity="0.4" d="M450.627 32.2667C438.846 31.5259 425.155 25.3936 425.639 20.3467L424.013 26.3431C423.52 31.4923 436.22 37.6049 448.902 38.6286L450.627 32.2667Z" fill="black"/>
<path opacity="0.4" d="M454.907 23.9996C453.863 27.852 449.513 28.7679 445.51 28.8813C442.218 28.9751 438.548 28.5354 438.548 28.5354L440.272 22.1735C440.272 22.1735 443.943 22.6132 447.234 22.5194C451.238 22.406 455.587 21.4901 456.631 17.6377L454.907 23.9996Z" fill="black"/>
<path opacity="0.4" d="M429.923 12.0786C441.703 12.8194 455.394 18.9516 454.911 23.9986L456.537 18.0022C457.029 12.853 444.33 6.74035 431.647 5.71667L429.923 12.0786Z" fill="black"/>
</g>
<g clip-path="url(#clip3_73_1105)">
<path opacity="0.4" d="M584.947 29.9885C584.947 30.1173 584.982 30.1876 585.065 30.1876C585.123 30.1876 585.17 30.1642 585.229 30.129L606.427 16.3931C606.803 16.1472 607.144 16.0184 607.649 16.0184H612.315C613.031 16.0184 613.513 16.4985 613.513 17.2128V26.0774C613.513 27.143 613.278 27.7636 612.315 28.3374L606.662 31.7216C606.592 31.7685 606.521 31.7919 606.474 31.7919C606.404 31.7919 606.345 31.745 606.345 31.546V21.1943C606.345 21.0772 606.31 20.9952 606.228 20.9952C606.169 20.9952 606.122 21.0186 606.063 21.0537L590.564 31.0893C590.129 31.3703 589.777 31.4523 589.377 31.4523H579.095C578.379 31.4523 577.897 30.9722 577.897 30.2579V17.4939C577.897 17.4002 577.85 17.3182 577.779 17.3182C577.72 17.3182 577.673 17.3417 577.615 17.3768L567.392 23.5012C567.286 23.5597 567.262 23.6183 567.262 23.6651C567.262 23.7119 567.274 23.7471 567.356 23.8173L574.654 31.0893C574.748 31.1829 574.818 31.2649 574.818 31.3352C574.818 31.4172 574.712 31.464 574.583 31.464H567.979C567.462 31.464 567.063 31.382 566.781 31.101L562.351 26.6863C562.304 26.6394 562.268 26.616 562.221 26.616C562.186 26.616 562.127 26.6394 562.08 26.6629L554.677 31.101C554.231 31.3703 553.925 31.4523 553.479 31.4523H546.663C545.947 31.4523 545.465 30.9722 545.465 30.2579V21.5573C545.465 20.48 545.7 19.871 546.663 19.2972L552.351 15.8896C552.409 15.8545 552.457 15.8428 552.504 15.8428C552.586 15.8428 552.633 15.9365 552.633 16.1238V27.7636C552.633 27.8807 552.668 27.9393 552.75 27.9393C552.797 27.9393 552.856 27.9041 552.915 27.869L572.127 16.358C572.585 16.0887 572.867 16.0067 573.396 16.0067H583.737C584.454 16.0067 584.935 16.4868 584.935 17.2011L584.947 29.9885Z" fill="black"/>
</g>
<g clip-path="url(#clip4_73_1105)">
<path opacity="0.4" d="M739.446 31.5944C739.446 30.6443 738.865 30.2789 737.992 30.2789C737.484 30.2789 731.305 30.2789 731.305 30.2789C728.034 30.2789 727.234 28.3056 727.089 27.0631C727.089 27.0631 733.994 27.0631 736.175 27.0631C738.937 27.0631 739.81 25.0167 739.81 23.7011C739.81 22.3125 738.937 20.3392 736.175 20.3392C733.704 20.3392 731.159 20.3392 731.159 20.3392C726.435 20.3392 724.908 23.555 724.908 26.1861C724.908 29.0364 726.653 32.033 731.159 32.033H739.446C739.446 32.106 739.446 31.6675 739.446 31.5944ZM731.305 22.0932C732.032 22.0932 734.649 22.0932 735.666 22.0932C737.265 22.0932 737.629 23.0434 737.629 23.7011C737.629 24.2858 737.265 25.309 735.666 25.309C734.576 25.309 726.943 25.309 726.943 25.309C727.089 24.2858 728.034 22.0932 731.305 22.0932ZM711.896 31.3752C711.387 32.033 711.169 32.3253 710.661 32.3253C710.006 32.3253 709.861 32.033 709.425 31.3752C708.407 29.9135 702.301 20.4122 702.301 20.4122C702.301 20.4122 702.737 20.4122 703.173 20.4122C704.627 20.4122 705.063 21.07 705.499 21.8009C705.863 22.3856 710.806 29.9865 710.806 29.9865C710.806 29.9865 715.458 22.751 716.112 21.7278C716.549 21.07 717.13 20.4122 718.511 20.4122C718.802 20.4122 719.165 20.4122 719.165 20.4122C719.165 20.4122 712.769 30.2058 711.896 31.3752ZM666.028 32.106C664.938 32.106 664.502 31.6675 664.356 30.7905L664.066 29.548C663.775 30.0596 662.321 32.106 659.123 32.106C659.123 32.106 657.523 32.106 655.851 32.106C650.908 32.106 649.527 28.7441 649.527 26.2591C649.527 23.4819 651.199 20.4122 655.851 20.4122C656.796 20.4122 657.814 20.4122 659.341 20.4122C662.903 20.4122 664.865 22.4587 665.301 25.0167C665.665 27.1362 666.61 32.106 666.61 32.106C666.61 32.106 666.392 32.106 666.028 32.106ZM658.832 22.2394C657.669 22.2394 657.378 22.2394 656.07 22.2394C652.726 22.2394 651.635 24.3589 651.635 26.2591C651.635 28.1594 652.726 30.2789 656.07 30.2789C657.451 30.2789 657.887 30.2789 658.832 30.2789C662.321 30.2789 663.266 28.0863 663.266 26.2591C663.266 24.6512 662.394 22.2394 658.832 22.2394ZM721.419 18.512C721.928 18.512 722.437 18.2197 722.437 17.5619C722.437 17.4157 722.437 17.2695 722.437 17.1965C722.437 16.6118 721.928 16.2463 721.419 16.2463C720.91 16.2463 720.401 16.5387 720.401 17.1965C720.401 17.2695 720.401 17.4157 720.401 17.5619C720.401 18.2197 720.91 18.512 721.419 18.512ZM720.474 20.4122C720.474 20.4122 720.765 20.4122 720.91 20.4122C721.855 20.4122 722.437 20.9239 722.437 21.9471C722.437 22.0932 722.437 32.106 722.437 32.106C722.437 32.106 722.218 32.106 722 32.106C721.055 32.106 720.474 31.5213 720.474 30.4981C720.474 30.4251 720.474 20.4122 720.474 20.4122ZM669.881 22.0932C670.317 21.6547 671.625 20.4122 674.17 20.4122C674.17 20.4122 675.769 20.4122 677.441 20.4122C682.384 20.4122 683.838 23.7742 683.838 26.2591C683.838 29.0364 682.093 32.106 677.441 32.106C676.496 32.106 675.478 32.106 673.952 32.106C670.39 32.106 667.845 29.8404 667.845 26.2591C667.845 25.0898 667.845 16.4656 667.845 16.4656C667.845 16.4656 668.209 16.4656 668.427 16.4656C669.445 16.4656 669.881 16.9772 669.881 17.8542C669.881 18.0004 669.881 22.0932 669.881 22.0932ZM674.46 30.2789C675.623 30.2789 675.914 30.2789 677.223 30.2789C680.494 30.2789 681.657 28.1594 681.657 26.2591C681.657 24.3589 680.566 22.2394 677.223 22.2394C675.842 22.2394 675.405 22.2394 674.46 22.2394C670.971 22.2394 670.026 24.432 670.026 26.2591C669.954 27.867 670.899 30.2789 674.46 30.2789ZM688.126 22.0932C688.562 21.6547 689.871 20.4122 692.415 20.4122C692.415 20.4122 694.014 20.4122 695.686 20.4122C700.629 20.4122 702.01 23.7742 702.01 26.2591C702.01 29.0364 700.338 32.106 695.686 32.106C694.741 32.106 693.724 32.106 692.197 32.106C688.635 32.106 686.091 29.8404 686.091 26.2591C686.091 25.0898 686.091 16.4656 686.091 16.4656C686.091 16.4656 686.454 16.4656 686.672 16.4656C687.69 16.4656 688.126 16.9772 688.126 17.8542C688.126 18.0004 688.126 22.0932 688.126 22.0932ZM692.706 30.2789C693.869 30.2789 694.16 30.2789 695.468 30.2789C698.812 30.2789 699.902 28.1594 699.902 26.2591C699.902 24.3589 698.812 22.2394 695.468 22.2394C694.087 22.2394 693.724 22.2394 692.706 22.2394C689.217 22.2394 688.272 24.432 688.272 26.2591C688.199 27.867 689.144 30.2789 692.706 30.2789Z" fill="black"/>
</g>
<defs>
<clipPath id="clip0_73_1105">
<rect width="124.595" height="16.0768" fill="white" transform="translate(0 15.9615)"/>
</clipPath>
<clipPath id="clip1_73_1105">
<rect width="75.4829" height="21.1352" fill="white" transform="translate(312.43 13.4324)"/>
</clipPath>
<clipPath id="clip2_73_1105">
<rect width="88.4912" height="36.5666" fill="white" transform="translate(423.913 5.71667)"/>
</clipPath>
<clipPath id="clip3_73_1105">
<rect width="65.1057" height="29.8401" fill="white" transform="translate(548.404 9.07996)"/>
</clipPath>
<clipPath id="clip4_73_1105">
<rect width="90" height="29" fill="white" transform="translate(649.51 9.5)"/>
</clipPath>
</defs>
</svg>
